<svg id="Layer_1" data-name="Layer 1" xmlns="http://www.w3.org/2000/svg" viewBox="0 0 1976 768"><defs><style>.cls-1{fill:#f2f2f2;}</style></defs><g id="WfvepX.tif"><path class="cls-1" d="M161.13,154.78a2.16,2.16,0,0,0,.37-1.26,48.65,48.65,0,0,1,7.78-22.6,50.16,50.16,0,0,1,8.43-10.06,50.73,50.73,0,0,1,20.41-11.52,48.33,48.33,0,0,1,16.17-1.83,49.77,49.77,0,0,1,29,10.87,19.63,19.63,0,0,1,2.44,2.2c.45.51.46.64,0,1.14-.29.33-.62.64-.93,1l-7,7.23c-.24.25-.48.49-.73.73a.56.56,0,0,1-.82.05l-.64-.52a34.64,34.64,0,0,0-18.88-8.62,35.39,35.39,0,0,0-16.33,1.65,34.41,34.41,0,0,0-11.59,6.69A35.07,35.07,0,0,0,176.94,151a36.27,36.27,0,0,0,5.4,26.94,34.71,34.71,0,0,0,15.21,12.79,35.67,35.67,0,0,0,12.11,3,37.32,37.32,0,0,0,19.53-3.83,27,27,0,0,0,11-9.84,28.08,28.08,0,0,0,4.07-11.43c.23-1.85.22-1.85-1.62-1.85h-29c-1.66,0-1.66,0-1.66-1.63V154.5c0-.27,0-.54,0-.82,0-.51.28-.74.77-.75h.72q21.5,0,43,0c.2,0,.41,0,.61,0,.75,0,.85.13,1,.9a28,28,0,0,1,.54,4.27,61.67,61.67,0,0,1,0,7.81,47.44,47.44,0,0,1-1.82,10.3,43.42,43.42,0,0,1-8.05,15.37,41.41,41.41,0,0,1-14.12,11.08,47.6,47.6,0,0,1-14.72,4.4,53.46,53.46,0,0,1-7.58.54,51,51,0,0,1-31.53-10.74,51.14,51.14,0,0,1-18.46-29.67,40.27,40.27,0,0,1-.82-5.68,3.27,3.27,0,0,0-.38-1.59Z"/><path class="cls-1" d="M431.86,236.41a9.25,9.25,0,0,0-2.22-.34,29.3,29.3,0,0,1-18.06-9.79,38.6,38.6,0,0,1-5.21-7.74c-.1-.18-.18-.37-.27-.56a.55.55,0,0,1,.34-.82l1.23-.52,9.2-3.86.67-.26c.65-.22.73-.2,1.06.39.24.42.46.84.69,1.26,3,5.37,7.43,8.75,13.64,9.39a17.28,17.28,0,0,0,11.34-2.5,15.05,15.05,0,0,0,6.45-9.09,17.38,17.38,0,0,0,.68-4.76c0-2.06,0-4.11,0-6.17a1,1,0,0,0-.12-.69c-.28-.09-.34.17-.47.31A21,21,0,0,1,438,207.28,27.58,27.58,0,0,1,422.39,205c-10.62-5-16.9-13.32-18.64-24.86a31.75,31.75,0,0,1,6.17-24.36,30.1,30.1,0,0,1,18.15-11.93,26,26,0,0,1,14.1.56,21.53,21.53,0,0,1,8.29,5,2.07,2.07,0,0,0,.7.58c.34-.09.24-.38.24-.59,0-1.06,0-2.12,0-3.19s.12-1.09,1.05-1.09H464c.89,0,1,.13,1,1,0,.2,0,.41,0,.61v57.05a42.32,42.32,0,0,1-2.13,13.54A28.65,28.65,0,0,1,456.63,228a25.72,25.72,0,0,1-9.43,6.26,30.51,30.51,0,0,1-8.58,2,4.31,4.31,0,0,0-.59.16Zm20.74-61.25a12.5,12.5,0,0,0-.18-2.1,18.77,18.77,0,0,0-6.58-13.25A15.21,15.21,0,0,0,433.46,156c-6.53.92-11.13,4.52-13.93,10.41a20.77,20.77,0,0,0-1.86,9.49,19.1,19.1,0,0,0,6.07,14.23,16.73,16.73,0,0,0,25.45-2.89C451.66,183.68,452.5,179.59,452.6,175.16Z"/><path class="cls-1" d="M553.65,167.33c-2.09.87-4.17,1.76-6.26,2.62l-33.5,13.94-2.38,1c-.43.18-.58.38-.32.85,2.67,4.81,6.52,8,12.09,8.74a19.39,19.39,0,0,0,10.11-1.06,18,18,0,0,0,7.58-6c.27-.35.53-.71.79-1.07a.6.6,0,0,1,.89-.18l.44.27q4.71,3.14,9.41,6.28c.83.55.85.66.25,1.43a34.82,34.82,0,0,1-12.09,10.17,31.35,31.35,0,0,1-12.36,3.16,32.71,32.71,0,0,1-14.18-2.3A30.39,30.39,0,0,1,503.37,198a30.88,30.88,0,0,1-8-15.94,36.93,36.93,0,0,1-.58-8.39c.35-7.62,2.63-14.55,7.67-20.38A28.58,28.58,0,0,1,522,143.18a27.44,27.44,0,0,1,13.86,2.15,29.16,29.16,0,0,1,11.28,8.86,35.66,35.66,0,0,1,4.92,8.74c.52,1.27,1.08,2.52,1.62,3.78Zm-45.21,5.2c0,.31,0,.62.08.92.11.53.29.63.79.47.17-.06.32-.14.48-.21L528.28,166c2.63-1.1,5.26-2.18,7.87-3.3.85-.36.89-.52.4-1.3a11,11,0,0,0-3.67-3.68,14,14,0,0,0-11.48-1.51,17.63,17.63,0,0,0-8.84,5.92A17,17,0,0,0,508.44,172.53Z"/><path class="cls-1" d="M296,207.51a33.35,33.35,0,0,1-12.81-2.24,30.86,30.86,0,0,1-12.51-8.91,31.82,31.82,0,0,1-7.43-17.52,31.46,31.46,0,0,1,7.81-25,30.74,30.74,0,0,1,19.62-10.4,32.94,32.94,0,0,1,23.07,5.11A29.65,29.65,0,0,1,327,168.58a35.11,35.11,0,0,1,.54,9.2,31.1,31.1,0,0,1-9.29,20.6,31.43,31.43,0,0,1-18.66,8.91C298.23,207.47,296.86,207.42,296,207.51Zm17.43-31.6c0-5.3-1.21-9.66-4.25-13.36a16.87,16.87,0,0,0-16.53-6.38c-6.67,1.06-11.22,5-13.81,11.16a20.47,20.47,0,0,0-1.42,9.86,19.22,19.22,0,0,0,5.27,12.1,17.64,17.64,0,0,0,27-1.9A18.66,18.66,0,0,0,313.38,175.91Z"/><path class="cls-1" d="M366.18,207.48a32.42,32.42,0,0,1-20.63-6.58,30.82,30.82,0,0,1-10.2-13.79,33,33,0,0,1-2.23-12.88,31.54,31.54,0,0,1,7.43-19.73,31.16,31.16,0,0,1,18.94-10.88,33.19,33.19,0,0,1,20.91,3,29.77,29.77,0,0,1,13.53,12.91,31.65,31.65,0,0,1,3.53,11.21,33.43,33.43,0,0,1-2,16.86,30.72,30.72,0,0,1-17.84,17.74A29.94,29.94,0,0,1,366.18,207.48Zm17.34-32.54a17.37,17.37,0,0,0-.45-4.36,18.29,18.29,0,0,0-6.65-10.91A17.22,17.22,0,0,0,364,156a17,17,0,0,0-9.6,3.79c-5,4.05-7.05,9.47-7,15.75a20.62,20.62,0,0,0,1,6.27,18.47,18.47,0,0,0,6,9,17.71,17.71,0,0,0,26-4.24A19.77,19.77,0,0,0,383.52,174.94Z"/><path class="cls-1" d="M474.24,158.17V112.54c0-2,.05-1.79,1.81-1.79h11.82a.68.68,0,0,1,.76.77c0,.24,0,.48,0,.72v92.09c0,1.2-.08,1.27-1.3,1.27H475c-.52,0-.74-.29-.75-.78s0-.75,0-1.13Z"/></g><polygon class="cls-1" points="235.75 273.16 243.96 289.79 262.32 292.46 249.04 305.41 252.17 323.69 235.75 315.06 219.34 323.69 222.47 305.41 209.19 292.46 227.54 289.79 235.75 273.16"/><polygon class="cls-1" points="300 273.16 308.21 289.79 326.56 292.46 313.28 305.41 316.42 323.69 300 315.06 283.58 323.69 286.72 305.41 273.43 292.46 291.79 289.79 300 273.16"/><polygon class="cls-1" points="364.24 273.16 372.45 289.79 390.81 292.46 377.52 305.41 380.66 323.69 364.24 315.06 347.82 323.69 350.96 305.41 337.68 292.46 356.03 289.79 364.24 273.16"/><polygon class="cls-1" points="495.65 273.16 503.86 289.79 522.22 292.46 508.93 305.41 512.07 323.69 495.65 315.06 479.23 323.69 482.37 305.41 469.09 292.46 487.44 289.79 495.65 273.16"/><polygon class="cls-1" points="428.49 273.16 436.7 289.79 455.05 292.46 441.77 305.41 444.9 323.69 428.49 315.06 412.07 323.69 415.2 305.41 401.92 292.46 420.28 289.79 428.49 273.16"/><polygon class="cls-1" points="885.2 273.16 893.41 289.79 911.76 292.46 898.48 305.41 901.62 323.69 885.2 315.06 868.78 323.69 871.91 305.41 858.63 292.46 876.99 289.79 885.2 273.16"/><polygon class="cls-1" points="949.44 273.16 957.65 289.79 976.01 292.46 962.72 305.41 965.86 323.69 949.44 315.06 933.02 323.69 936.16 305.41 922.88 292.46 941.23 289.79 949.44 273.16"/><polygon class="cls-1" points="1013.68 273.16 1021.89 289.79 1040.25 292.46 1026.97 305.41 1030.1 323.69 1013.68 315.06 997.27 323.69 1000.4 305.41 987.12 292.46 1005.48 289.79 1013.68 273.16"/><polygon class="cls-1" points="1145.09 273.16 1153.3 289.79 1171.66 292.46 1158.38 305.41 1161.51 323.69 1145.09 315.06 1128.67 323.69 1131.81 305.41 1118.53 292.46 1136.88 289.79 1145.09 273.16"/><polygon class="cls-1" points="1077.93 273.16 1086.14 289.79 1104.49 292.46 1091.21 305.41 1094.35 323.69 1077.93 315.06 1061.51 323.69 1064.65 305.41 1051.36 292.46 1069.72 289.79 1077.93 273.16"/><polygon class="cls-1" points="508.45 634.94 516.66 651.58 535.02 654.24 521.74 667.19 524.87 685.47 508.45 676.84 492.03 685.47 495.17 667.19 481.89 654.24 500.24 651.58 508.45 634.94"/><polygon class="cls-1" points="572.7 634.94 580.9 651.58 599.26 654.24 585.98 667.19 589.11 685.47 572.7 676.84 556.28 685.47 559.41 667.19 546.13 654.24 564.49 651.58 572.7 634.94"/><polygon class="cls-1" points="636.94 634.94 645.15 651.58 663.5 654.24 650.22 667.19 653.36 685.47 636.94 676.84 620.52 685.47 623.66 667.19 610.38 654.24 628.73 651.58 636.94 634.94"/><polygon class="cls-1" points="768.35 634.94 776.56 651.58 794.91 654.24 781.63 667.19 784.77 685.47 768.35 676.84 751.93 685.47 755.07 667.19 741.78 654.24 760.14 651.58 768.35 634.94"/><polygon class="cls-1" points="701.18 634.94 709.39 651.58 727.75 654.24 714.47 667.19 717.6 685.47 701.18 676.84 684.77 685.47 687.9 667.19 674.62 654.24 692.98 651.58 701.18 634.94"/><polygon class="cls-1" points="1200.74 644.46 1208.95 661.1 1227.3 663.76 1214.02 676.71 1217.16 694.99 1200.74 686.36 1184.32 694.99 1187.45 676.71 1174.17 663.76 1192.53 661.1 1200.74 644.46"/><polygon class="cls-1" points="1264.98 644.46 1273.19 661.1 1291.55 663.76 1278.26 676.71 1281.4 694.99 1264.98 686.36 1248.56 694.99 1251.7 676.71 1238.42 663.76 1256.77 661.1 1264.98 644.46"/><polygon class="cls-1" points="1329.23 644.46 1337.43 661.1 1355.79 663.76 1342.51 676.71 1345.64 694.99 1329.23 686.36 1312.81 694.99 1315.94 676.71 1302.66 663.76 1321.02 661.1 1329.23 644.46"/><polygon class="cls-1" points="1460.63 644.46 1468.84 661.1 1487.2 663.76 1473.92 676.71 1477.05 694.99 1460.63 686.36 1444.22 694.99 1447.35 676.71 1434.07 663.76 1452.42 661.1 1460.63 644.46"/><polygon class="cls-1" points="1393.47 644.46 1401.68 661.1 1420.04 663.76 1406.75 676.71 1409.89 694.99 1393.47 686.36 1377.05 694.99 1380.19 676.71 1366.9 663.76 1385.26 661.1 1393.47 644.46"/><polygon class="cls-1" points="1488.4 270.44 1496.61 287.07 1514.96 289.74 1501.68 302.69 1504.82 320.97 1488.4 312.34 1471.98 320.97 1475.11 302.69 1461.83 289.74 1480.19 287.07 1488.4 270.44"/><polygon class="cls-1" points="1552.64 270.44 1560.85 287.07 1579.21 289.74 1565.92 302.69 1569.06 320.97 1552.64 312.34 1536.22 320.97 1539.36 302.69 1526.08 289.74 1544.43 287.07 1552.64 270.44"/><polygon class="cls-1" points="1616.88 270.44 1625.09 287.07 1643.45 289.74 1630.17 302.69 1633.3 320.97 1616.88 312.34 1600.47 320.97 1603.6 302.69 1590.32 289.74 1608.68 287.07 1616.88 270.44"/><polygon class="cls-1" points="1748.29 270.44 1756.5 287.07 1774.86 289.74 1761.58 302.69 1764.71 320.97 1748.29 312.34 1731.88 320.97 1735.01 302.69 1721.73 289.74 1740.08 287.07 1748.29 270.44"/><polygon class="cls-1" points="1681.13 270.44 1689.34 287.07 1707.69 289.74 1694.41 302.69 1697.55 320.97 1681.13 312.34 1664.71 320.97 1667.85 302.69 1654.56 289.74 1672.92 287.07 1681.13 270.44"/><g id="aYYWib"><path class="cls-1" d="M679.27,132.09a64.76,64.76,0,0,1,45.51-61.6c24.51-7.61,53.17,2.58,67.79,23.79A68.2,68.2,0,0,1,805.05,133c.1,8.54-2.62,16.64-5.79,24.52A207.12,207.12,0,0,1,789,178.58c-1.51,2.78-1.84,2.76-3.69.18-.13-.17-.23-.35-.36-.52-5-6.39-7.23-12.62-1.84-20.41,3.55-5.14,5.44-11.47,6.7-17.76,2.58-12.95-.74-24.72-8-35.33-8.93-13.1-21.59-20.6-37.46-21.35-17-.81-30.77,6.19-41,19.81a49.68,49.68,0,0,0-9.94,28.2c-.4,8.58,2.79,16.39,6.28,24,10.36,22.6,24.37,42.94,39.3,62.69,2.67,3.53,3.63,3.48,6.3-.12q6-8.18,11.91-16.48c1.52-2.15,2.64-2.64,4.16,0s3.42,5.48,5.26,8.14a3,3,0,0,1,0,4c-4.29,5.77-8.21,11.86-12.9,17.28a15.69,15.69,0,0,1-24-.59C714.87,210.84,701,190.64,690,168.66c-4.65-9.24-8.62-18.76-10.29-29.09A49.31,49.31,0,0,1,679.27,132.09Z"/><path class="cls-1" d="M853.41,132a49.31,49.31,0,0,0-40-47.86c-4.18-.81-8.45-1.39-12.74-.48a7.69,7.69,0,0,1-8-2.78A90.93,90.93,0,0,0,785.29,74c-.52-.48-1.37-.83-1.28-1.65.11-1.06,1.17-1,1.93-1.28,23.19-7,43.78-2.1,61.44,14.22,12.85,11.88,19.16,27.09,20.38,44.42.77,10.83-2.67,20.83-6.92,30.52-9.7,22.1-23,42-37.23,61.41-2,2.77-4,5.59-6.15,8.3-6.28,8-18.66,8.4-24.8.36-17.75-23.24-34.4-47.21-45.61-74.48-8.37-20.36-6.08-39.73,5.22-58.35,1.55-2.55,3.12-3.27,5.82-1.73,2.18,1.24,4.36,2.44,6.49,3.76s2.43,2.6.9,4.75a48.38,48.38,0,0,0-9.15,29c0,6.44,2,12.34,4.42,18.11,7.94,19,19,36.13,30.86,52.85,3.42,4.86,6.92,9.67,10.45,14.45,2,2.65,3.51,2.73,5.41.17,14.94-20.12,29.36-40.58,39.79-63.51C850.62,147.94,853.79,140.39,853.41,132Z"/><path class="cls-1" d="M892.72,151.12c0-11.62,0-21.11,0-30.6,0-4.14,2.49-7,6.09-7.48,4.62-.57,8,2.45,8,7.35,0,16.89,0,33.79,0,50.68A55.48,55.48,0,0,0,908,182.56c1.81,8.62,7,13.66,15.79,15.07a38.63,38.63,0,0,0,15.52-.48c9.28-2.3,14.62-9.19,14.77-19.91.26-17.93.14-35.87.17-53.81a18.79,18.79,0,0,1,.45-5.28,6.91,6.91,0,0,1,6.67-5.15,6.82,6.82,0,0,1,6.76,5,16,16,0,0,1,.56,4.31c0,17,.11,34,0,51-.06,8-1.23,15.84-5.55,22.81-6.11,9.86-15.75,13.61-26.66,14.61a56.69,56.69,0,0,1-18.35-.91q-22.25-5.21-24.77-28C892.1,170.88,893.11,159.92,892.72,151.12Z"/><path class="cls-1" d="M1059.84,161.52a57.3,57.3,0,0,1,2.86-20.06c5.57-17.12,19.22-27.53,37.23-28.43,7.9-.4,15.66.3,22.94,3.66,8.81,4.08,14.61,10.58,15.88,20.52.46,3.57-1.19,6.24-4.22,7.09a6.3,6.3,0,0,1-7.79-3.5c-7-14.41-20.45-19.13-35.46-12.62-8.36,3.62-13.14,10.22-15.23,18.68-2.61,10.61-2.64,21.32,1.15,31.73,4,11,12.12,17.07,23.61,18.89a49.51,49.51,0,0,0,25.77-3,29,29,0,0,1,3.28-1c3.62-.92,6.52.2,7.73,2.92a6.92,6.92,0,0,1-3,8.68c-4.67,2.67-9.85,3.9-15.11,4.83a67.48,67.48,0,0,1-25.18.06c-19.11-3.83-31.08-17.05-33.85-36.92A73,73,0,0,1,1059.84,161.52Z"/><path class="cls-1" d="M996.45,153.31c3.79-4.84,8.17-8,13.67-9,16.84-3.06,33.7,3,35.54,26.84a55.4,55.4,0,0,1-.47,13.72c-2.73,15.74-13.47,25.3-29.44,26-5,.22-10,.26-14.9-1.11-2.36-.65-2.91.31-2.86,2.48.1,4.9,0,9.8,0,14.7,0,2.25-.42,4.38-2.23,6a6.94,6.94,0,0,1-7.31,1.3,6,6,0,0,1-4.3-5.92c-.09-3.85,0-7.71,0-11.57q0-32.39,0-64.77a19.7,19.7,0,0,1,.11-3.44c.51-3,2.46-4.5,5.36-4.82a5.34,5.34,0,0,1,6.1,3.76C996.32,149.12,996.21,150.9,996.45,153.31ZM1031.69,177c0-1.46.12-2.93,0-4.38-1.32-13.64-9.91-19.42-23.07-16.07-6.06,1.55-9.6,6-10.47,12.33-1.16,8.4-.28,16.86-.55,25.29-.07,2,1.24,2.64,2.78,3.21,4.82,1.78,9.83,1.87,14.82,1.38,6.56-.63,11.59-3.7,14.49-9.88A25.17,25.17,0,0,0,1031.69,177Z"/><path class="cls-1" d="M1260,191.88c3-7.51,5.59-14.18,8.23-20.85,3-7.67,6-15.34,9.09-23,1.76-4.35,5.68-6,9.59-4.27,3.47,1.57,4.51,4.71,2.75,9-3.2,7.82-6.51,15.59-9.77,23.38q-8.52,20.34-17,40.68c-2.49,5.95-5.42,11.52-11.4,14.8-5.33,2.92-11.07,2.79-16.79,2.21-3.65-.36-5.64-3.45-5.05-7,.53-3.2,3.05-5,6.67-4.65,9.7.84,14.92-3.16,16.8-12.79a6,6,0,0,0-.82-3.58q-10.79-25-21.59-50c-.54-1.24-1.11-2.48-1.53-3.76-1.28-3.85-.1-7,3.13-8.45a6.78,6.78,0,0,1,9,3.41c2,4.13,3.64,8.42,5.41,12.65Z"/><path class="cls-1" d="M1190.66,177.48c0-5.63,0-11.27,0-16.9,0-4.2,0-4.18-4.07-4.3a16.18,16.18,0,0,1-3.41-.35,5.57,5.57,0,0,1-4.39-6c.14-3.05,1.83-4.77,4.71-5.42a10.62,10.62,0,0,1,2.18-.16c5.47,0,5,.12,5-5.24,0-2.5-.09-5,0-7.5.2-3.56,3-6,6.72-6s6.51,2.32,6.68,6c.15,3.33.12,6.67,0,10-.06,2,.79,2.81,2.78,2.76,2.92-.08,5.84-.1,8.76,0,4,.17,6,2.16,6,5.74s-1.86,5.75-5.73,6.06c-2.9.23-5.83.16-8.75.1-2,0-3.07.58-3.06,2.85.08,10.53-.07,21.07.08,31.6.09,6.22,3.12,8.54,9.35,7.64,5.73-.82,8.46,1.19,8.1,6a5.4,5.4,0,0,1-4.49,5.31c-5.44,1.19-11,1.59-16.41.16-6.28-1.65-9.83-6.6-10-14.18-.16-6,0-12.1,0-18.15Z"/><path class="cls-1" d="M1167.23,177.22c0,8.75,0,17.51,0,26.26,0,4.33-2.62,7.15-6.52,7.17-4.1,0-7-2.81-7-7.11q0-26.58,0-53.16c0-4.25,2.67-7.06,6.6-7.14,4.23-.09,6.86,2.56,6.88,7.08C1167.25,159.29,1167.23,168.25,1167.23,177.22Z"/><path class="cls-1" d="M1169.71,124c0,5.49-3.55,9.27-8.78,9.24a9.16,9.16,0,0,1-.14-18.32C1166.06,114.87,1169.68,118.56,1169.71,124Z"/></g><g id="_6WG6Rt" data-name="6WG6Rt"><path class="cls-1" d="M1733.65,211.92q0-19,0-38.06,0-31.26,0-62.52c0-2.54,0-2.54,2.57-2.54h12.39c2,0,2,0,2,2q0,16.69,0,33.38v1.57a.55.55,0,0,0,.77-.1c5-4,11-5.15,17.19-4.76,8.13.5,14.66,4,19.16,10.95a27.47,27.47,0,0,1,4,11.45c.06.4.15.79.23,1.18q0,23.11,0,46.23c0,1-.2,1.25-1.24,1.24-5.13-.07-10.27,0-15.41,0,0-.7-.1-1.4-.1-2.11,0-13,0-26.06,0-39.1a25.27,25.27,0,0,0-1.18-8.92,7.73,7.73,0,0,0-6.22-5.32,14.29,14.29,0,0,0-16.88,12.15,33.09,33.09,0,0,0-.31,5.26l-.06,38Z"/><path class="cls-1" d="M1429.37,156.62a60.67,60.67,0,0,1,2.62-12.21c6.36-17.67,18.57-28.76,37.19-31.94,17.4-3,32.08,2.81,44.28,15.34.8.82.57,1.28-.11,2-3,2.93-6,5.85-8.86,8.87-1,1-1.49.88-2.4,0A35.56,35.56,0,0,0,1482.36,128c-16.31-2.81-31.19,6.63-35.46,22.65-2.86,10.76-2,21.21,4,30.81a29,29,0,0,0,21.83,13.79c10,1.31,18.91-1.47,26.72-7.83a15.53,15.53,0,0,0,3-3.37c.53-.79,1-1,1.75-.2,3.11,3.36,6.26,6.69,9.41,10,.53.55.5.95,0,1.52A47,47,0,0,1,1482,211.44c-11.48,1.08-22.15-1.24-31.74-7.72-11.14-7.54-17.47-18.25-20-31.32-.34-1.72-.55-3.47-.83-5.2Z"/><path class="cls-1" d="M1577.13,211.92a39.44,39.44,0,0,1-8.85-2.4c-6.64-2.82-10.39-8.18-12.93-14.61a36.08,36.08,0,0,1-2.42-13.14c-.06-12.53,0-25.07,0-37.6,0-2.15,0-2.16,2.19-2.16h12.54c2.26,0,2.27,0,2.27,2.23,0,12.14,0,24.27,0,36.4a20.5,20.5,0,0,0,1.66,8.82c2,4.28,5.26,6.5,10,6.4,6.69-.16,12.26-2.39,15.29-8.81a12.52,12.52,0,0,0,1.18-8.47,5.52,5.52,0,0,1-.06-1.35V144.3c0-2.28,0-2.29,2.22-2.29,4.38,0,8.76,0,13.14,0,1.12,0,1.65.28,1.65,1.51q0,34,0,68a3.44,3.44,0,0,1,0,.45H1598c0-1.1,0-2.2,0-3.3,0-.47.27-1.12-.27-1.36s-.77.34-1.11.61a17.72,17.72,0,0,1-4.47,2.41,41.17,41.17,0,0,1-6.83,1.64Z"/><path class="cls-1" d="M1630.92,211.92c0-.75-.07-1.51-.07-2.26V161.31c0-2.5,0-2.5-2.57-2.5s-5.34,0-8,0c-1.19,0-1.75-.31-1.74-1.6q.06-6.79,0-13.6c0-1.24.46-1.67,1.7-1.64,3,.07,5.94,0,8.91,0,1.32,0,1.74-.39,1.73-1.72,0-7.1,0-14.2,0-21.3,0-1.5.41-2,2-2,4.33.08,8.66,0,13,0,2,0,2.07.11,2.07,2,0,7,0,14,0,21,0,1.51.41,2,2,2,2.92-.11,5.84,0,8.76,0,1.12,0,1.5.39,1.49,1.5,0,4.63,0,9.26,0,13.89,0,1-.39,1.44-1.43,1.43-3,0-5.94.06-8.91,0-1.49,0-1.87.51-1.87,1.92q.06,25.62,0,51.22Z"/><path class="cls-1" d="M1523.65,211.92q0-38.22,0-76.43,0-12.09,0-24.17c0-2.52,0-2.52,2.46-2.52h12.24c2.27,0,2.28,0,2.28,2.22v30.66q0,34,0,68c0,.75,0,1.51-.07,2.26Z"/><path class="cls-1" d="M1697.93,140.49a37,37,0,0,1,26.33,10.94c.8.78,1,1.28.07,2.15-3,2.9-5.95,5.87-8.87,8.86-.79.8-1.33.94-2.22.11-2.51-2.34-5.14-4.55-8.58-5.44-8.39-2.16-17.91-.15-22.84,7.71-6,9.57-3.35,25.41,9.3,29.81,7.07,2.46,13.78,1.6,19.85-3a18.58,18.58,0,0,0,2.56-2.76c.59-.67,1-.73,1.72-.06q5,5.06,10,10c.79.77.49,1.21-.13,1.84a36.11,36.11,0,0,1-22.39,10.79c-10,1.08-19.13-1.26-27-7.58a34.24,34.24,0,0,1-12.93-24.22,36.38,36.38,0,0,1,4.23-21.73c5.54-10,14.24-15.43,25.44-17.1A32.73,32.73,0,0,1,1697.93,140.49Z"/><path class="cls-1" d="M1709.84,176.18a12.11,12.11,0,1,1-24.22,0,12.28,12.28,0,0,1,12.16-12A12.13,12.13,0,0,1,1709.84,176.18Z"/></g><g id="_0aTZJs.tif" data-name="0aTZJs.tif"><path class="cls-1" d="M721.45,523.18a7.08,7.08,0,0,0-.17,2.29,62.23,62.23,0,0,1-2.47,16.38,29.59,29.59,0,0,1-7.49,12.88,28.46,28.46,0,0,1-10.45,6.46A31.23,31.23,0,0,1,687.74,563a23.7,23.7,0,0,1-11.23-3.53c-1.16-.74-2.25-1.58-3.39-2.35s-1-.65-1.42.54a10.84,10.84,0,0,0-.57,4.39c.18,2.7.07,5.42.08,8.13,0,1.94-.05,3.89,0,5.82a30.87,30.87,0,0,1-.56,6.15,6.71,6.71,0,0,1-2.58,4.14A10.24,10.24,0,0,1,654.9,586c-2-1.77-2.68-4.18-2.92-6.73-.06-.65,0-1.3,0-1.94q0-45.21,0-90.42a23.14,23.14,0,0,1,.34-4.23,6.88,6.88,0,0,1,3.93-5.21,10.71,10.71,0,0,1,7-1.15,8.17,8.17,0,0,1,6.47,6c.41,1.33.44,1.35,1.74.76a11.12,11.12,0,0,0,1.88-1.1,28,28,0,0,1,11.95-5.1,29.92,29.92,0,0,1,10.38.16,33.53,33.53,0,0,1,11.7,4.2,25.83,25.83,0,0,1,10.17,11.89A47.92,47.92,0,0,1,721,507a38.15,38.15,0,0,1,.25,4,2.84,2.84,0,0,0,.16,1.08Zm-11-4.52A62.75,62.75,0,0,0,710,509a29,29,0,0,0-2.26-8.52c-2.11-4.45-5.51-6.95-10.58-7a22.28,22.28,0,0,0-6.34.9,11.78,11.78,0,0,0-3.61,1.68,12.43,12.43,0,0,0-4.41,6.23c-1.67,4.63-2,9.47-2.31,14.31a80.2,80.2,0,0,0,.23,11.39,28.58,28.58,0,0,0,2,8.83,12.43,12.43,0,0,0,9.71,7.9,19,19,0,0,0,5.32.14,11.67,11.67,0,0,0,10-6.93,24.09,24.09,0,0,0,1.77-5.53A67.11,67.11,0,0,0,710.5,518.66Z"/><path class="cls-1" d="M782.77,424.51l1,.35A7.84,7.84,0,0,1,789,432c.06,2.39.34,4.75.52,7.13.14,2,.3,3.92.45,5.88l.72,8.85c.15,1.9.29,3.79.44,5.69l.72,9.05c.22,2.82.43,5.65.64,8.47s.42,5.4.64,8.09a7.36,7.36,0,0,1-3,6.94,7.9,7.9,0,0,1-11.73-2.25c-4.45-7.77-9-15.51-13.45-23.27q-6.52-11.3-13.07-22.59c-.24-.42-.48-.84-.74-1.25a7.71,7.71,0,0,1,4.53-11.59l6.82-1.85,16.14-4.4c.37-.11.73-.25,1.09-.37Z"/><path class="cls-1" d="M738.46,514.05a1.94,1.94,0,0,0,.16-.75c.06-1.48.14-3,.19-4.44.14-4.28.24-8.56.41-12.85a6.52,6.52,0,0,1,8.61-5.88c3.42,1.16,6.81,2.42,10.21,3.64l18.75,6.71a6.74,6.74,0,0,1,.29,12.8c-1.58.57-3.18,1.06-4.78,1.59L753.55,521c-2.15.7-4.28,1.43-6.44,2.08a6.38,6.38,0,0,1-7-2,6.49,6.49,0,0,1-1.23-2.17,3.84,3.84,0,0,0-.41-1Z"/><path class="cls-1" d="M783.93,566.47c-5.86-2.09-11.59-4.51-17.39-6.74-1-.38-2-.81-3-1.15a6.57,6.57,0,0,1-2.86-10.52c2.26-2.69,4.47-5.41,6.7-8.12q4.76-5.79,9.52-11.56c1-1.22,2-2.45,3-3.66a8.27,8.27,0,0,1,2.14-1.94,6.75,6.75,0,0,1,10.12,5.83c0,3.11,0,6.24-.24,9.36,0,.19,0,.39,0,.58-.08,3.7-.11,7.41-.25,11.11s-.1,7.21-.33,10.81a6.5,6.5,0,0,1-4.65,5.7l-1,.3Z"/><path class="cls-1" d="M562,527.32q-9.46,0-18.94,0c-2.19,0-3,.75-3,3a16.23,16.23,0,0,0,1.57,7.65,14.05,14.05,0,0,0,10.77,8c5.11.91,9.78-.44,14.15-3a31.34,31.34,0,0,0,4.85-3.64,32.5,32.5,0,0,1,2.9-2.2c3.58-2.55,8.29-.76,10.14,2.13a9.58,9.58,0,0,1,.21,10.35,21.75,21.75,0,0,1-8.29,8.17A41.53,41.53,0,0,1,560,563.06a44.83,44.83,0,0,1-7.5.44c-6.13-.23-11.94-1.56-17.16-4.94a28.32,28.32,0,0,1-9.14-9.89,44.42,44.42,0,0,1-5.1-15.47,84.27,84.27,0,0,1-.54-18.51,78.38,78.38,0,0,1,1-9,39.88,39.88,0,0,1,5.4-14.58,28.08,28.08,0,0,1,18.31-12.56,48.69,48.69,0,0,1,13-1.22c7.09.34,13.64,2.23,19.11,7a28,28,0,0,1,7.28,10.19A44,44,0,0,1,588,508.83a92.84,92.84,0,0,1,.44,10.41,16.82,16.82,0,0,1-.78,4.77,4,4,0,0,1-3.16,2.86,16.76,16.76,0,0,1-3.73.45Q571.38,527.3,562,527.32Zm-10.24-14.81h15c1.25,0,1.53-.25,1.49-1.49a23.4,23.4,0,0,0-1.14-7.15,13.64,13.64,0,0,0-9.68-9.21,18.3,18.3,0,0,0-7.69-.31c-5.31.82-9.62,3.16-12.44,7.9a17.39,17.39,0,0,0-2.55,7.76c-.14,1.92.45,2.5,2.3,2.5Z"/><path class="cls-1" d="M477.85,528.72c.4-.22.38-.57.47-.87q6-20.37,12-40.74a19.83,19.83,0,0,1,2.79-6,7.71,7.71,0,0,1,4.86-3.58,10.2,10.2,0,0,1,8.81,2.43c2.3,2,2.85,4.8,2.64,7.75a20.88,20.88,0,0,1-1.06,4.73q-3.42,10.81-6.86,21.63-5.89,18.62-11.8,37.24-2.57,8.1-5.2,16.17a41.68,41.68,0,0,1-3.93,8.72,16.86,16.86,0,0,1-10.89,8.09,37.86,37.86,0,0,1-11.07,1.1,16.3,16.3,0,0,1-7.94-2.34,8.52,8.52,0,0,1-1.31-13.48,9.81,9.81,0,0,1,6.34-2.42c1.57,0,3.15,0,4.73.08a7.07,7.07,0,0,0,7.34-8.52,15.05,15.05,0,0,0-1.32-4q-5.85-11.92-11.69-23.86Q446.5,514,438.25,497.12a21.17,21.17,0,0,1-2.57-7.66c-.3-3.95,1-7.16,4.32-9.41a10,10,0,0,1,5.8-1.92,8.14,8.14,0,0,1,7.44,4.23c1.09,2,2.14,4,3.2,6q6.62,12.57,13.22,25.13l7.25,13.74A5,5,0,0,0,477.85,528.72Z"/><path class="cls-1" d="M609,506.58V461.79a23.09,23.09,0,0,1,.23-3.62,8,8,0,0,1,4.17-6.2,10.44,10.44,0,0,1,8.53-1.09,8.94,8.94,0,0,1,4.58,3.23,5.47,5.47,0,0,1,1.07,2.55,54.7,54.7,0,0,1,.64,7.24q0,43.92,0,87.86a17.51,17.51,0,0,1-.58,5,8.93,8.93,0,0,1-5.34,5.91,9.64,9.64,0,0,1-10.9-2.32,7.68,7.68,0,0,1-2-4,32.21,32.21,0,0,1-.44-5.55Q609,528.73,609,506.58Z"/><path class="cls-1" d="M845.11,489.61a6.42,6.42,0,0,1-4.53,6.26c-2.81.85-5.65,1.59-8.48,2.37L811.21,504a8.48,8.48,0,0,1-3.91.33,6.76,6.76,0,0,1-4.14-10.48c1.27-1.78,2.6-3.52,3.91-5.28l12.58-16.79c.74-1,1.46-2,2.19-2.95a6.52,6.52,0,0,1,10.94.21c3.73,5.61,7.42,11.25,11.13,16.87A6.37,6.37,0,0,1,845.11,489.61Z"/><path class="cls-1" d="M826.52,554.54a6.7,6.7,0,0,1-5.85-3c-1.75-2.47-3.48-5-5.22-7.43-4-5.72-8-11.45-12.08-17.16a6.81,6.81,0,0,1-1.17-6.55,6.61,6.61,0,0,1,8-4.31c2.34.61,4.64,1.36,7,2.07L839.48,525c.43.13.86.26,1.29.42a6.45,6.45,0,0,1,3.1,10c-3.16,4.27-6.4,8.49-9.61,12.73-.93,1.24-1.85,2.48-2.8,3.7A6.21,6.21,0,0,1,826.52,554.54Z"/></g><g id="cHaWW1.tif"><path class="cls-1" d="M1344.12,569.87c-1.49-.63-3.06-1-4.51-1.77a20.83,20.83,0,0,1-9.35-8.77,4,4,0,0,0-.27-.39c-.35.3-.2.67-.2,1,0,2.65,0,5.31,0,8,0,.89-.23,1.33-1.23,1.33q-9.52,0-19.06,0c-.91,0-1.27-.36-1.2-1.23,0-.31,0-.62,0-.92V459.92c0-.34,0-.69,0-1,0-.74.23-1.11,1-1.18,4.86-.43,9.72-.9,14.59-1.34,1.91-.18,3.84-.27,5.74-.52,1.07-.14,1.37.21,1.32,1.22s0,2.15,0,3.23q0,21.39,0,42.78a2.62,2.62,0,0,0,.17,1.45,24.05,24.05,0,0,1,3.8-4.82,22.69,22.69,0,0,1,14.67-6.21,31.77,31.77,0,0,1,14.59,2.19c6.94,2.91,11.63,8,14.59,14.83a46.09,46.09,0,0,1,3.53,16.47,74.68,74.68,0,0,1-1,18.47c-1.38,6.76-4.07,12.88-9.15,17.77a25.81,25.81,0,0,1-10.81,6.19c-.44.13-.87.3-1.3.45Zm-13.15-37a57.82,57.82,0,0,0,.22,6.93,17.13,17.13,0,0,0,3.71,9c4.08,4.74,11.63,5.09,16.66,2.91,4.44-1.92,6.62-5.64,7.5-10.15a52,52,0,0,0,.18-18.12c-1.1-7-5.23-11.61-12.47-12.23-7.51-.64-13.08,3-15,10.07C1330.84,524.83,1331,528.44,1331,532.83Z"/><path class="cls-1" d="M1618.34,569.17c-6,0-11.93,0-17.9,0a2.16,2.16,0,0,1-2.06-1.14q-10.62-16.75-21.29-33.48c-.24-.37-.37-.83-.85-1.05a2.56,2.56,0,0,0-.13,1.36q0,16.32,0,32.63c0,1.65,0,1.66-1.67,1.66q-9.71,0-19.41,0c-1.47,0-1.58-.1-1.58-1.56q0-54.14,0-108.27c0-1.06.24-1.6,1.44-1.7,4.75-.38,9.49-.85,14.24-1.29,2-.18,4-.31,6-.53.78-.08,1.08.17,1,.93,0,.38,0,.77,0,1.15q0,35.11,0,70.22a3.34,3.34,0,0,0,.19,1.65c1.3-2.07,2.54-4,3.77-6q8.73-13.92,17.45-27.85a2.05,2.05,0,0,1,2-1c6.27,0,12.55,0,18.82,0v6.23c-.35.51-.71,1-1,1.52q-8.79,13.82-17.59,27.63a2,2,0,0,0,0,2.56c4.06,6.21,8,12.47,12.08,18.7,2.17,3.35,4.38,6.68,6.57,10Z"/><path class="cls-1" d="M1106.85,569.87c-1.51-.56-3.06-1-4.53-1.69-7.57-3.31-12.19-9.27-14.93-16.85a46.12,46.12,0,0,1-2.57-13.53,77.34,77.34,0,0,1,1-19.28c1.28-6.37,3.77-12.19,8.33-16.94a25.53,25.53,0,0,1,13.23-7.34c6.63-1.43,13.15-1.36,19.39,1.69a20.87,20.87,0,0,1,9,8.66c.14.26.2.58.52.75.28-.3.15-.66.15-1,0-2.69,0-5.39,0-8.08,0-.94.26-1.41,1.31-1.4q9.63,0,19.28,0c.83,0,1.23.32,1.16,1.16,0,.27,0,.54,0,.81v70.33c0,2,0,2-2.05,2q-9.06,0-18.13,0c-1.51,0-1.56,0-1.56-1.55,0-2.88,0-5.75,0-8.63-.43,0-.44.26-.54.43a20.64,20.64,0,0,1-12.15,10c-.33.11-.63.28-1,.42ZM1135.5,532c0-3.15.17-6.31-.5-9.42a15.45,15.45,0,0,0-4.6-8.59c-4.18-3.76-12.67-3.4-16.56-.88-3.33,2.18-4.94,5.39-5.77,9.1-1.12,5-.76,10-.65,15a22.6,22.6,0,0,0,1.14,6.45,13.89,13.89,0,0,0,20.68,7.21c3.4-2.22,4.9-5.6,5.74-9.38C1135.69,538.42,1135.46,535.22,1135.5,532Z"/><path class="cls-1" d="M1498.21,569.87a54.21,54.21,0,0,1-8.51-2.86c-9.08-4.34-14.69-11.56-17-21.18a55.52,55.52,0,0,1,.27-28.5c3.53-12.62,12.08-20.15,24.82-22.85a48.08,48.08,0,0,1,24.2.82c11.21,3.39,18.52,10.82,21.55,22.05a54,54,0,0,1-.4,30.7c-3.51,11.21-11.26,18.14-22.57,21.17-.74.2-1.47.43-2.21.65Zm24.45-37.56a57.37,57.37,0,0,0-.22-7,18.15,18.15,0,0,0-3.62-9.68c-4.07-5-12-5.41-17-3.21-4.1,1.82-6.35,5.22-7.21,9.43a52.74,52.74,0,0,0-.14,19.8c1.11,6.27,5,10.71,12.14,11.29s12.69-2.25,14.93-9.67A35.42,35.42,0,0,0,1522.66,532.31Z"/><path class="cls-1" d="M1416.89,569.87a49.58,49.58,0,0,1-8.94-3c-8.59-4.19-13.89-11.07-16.51-20.13a44.64,44.64,0,0,1-1.64-12.17c0-5.7,0-11.37,1.57-16.92,3.49-12,11.25-19.71,23.42-22.76a47.58,47.58,0,0,1,26.42.67c11,3.48,17.79,11,21,22a43.81,43.81,0,0,1,1.65,12.06c0,5,.06,10.06-1.11,15-3.12,13.15-11.14,21.51-24.3,24.87-.56.14-1.11.3-1.66.46Zm24.28-38c-.11-2.52.17-5.21-.29-7.89a17.31,17.31,0,0,0-3.53-8.52c-2.61-3.11-6.14-4.26-10-4.38a14.51,14.51,0,0,0-8.2,1.92,13.13,13.13,0,0,0-6.06,9.27,55.84,55.84,0,0,0-.16,18.69,14,14,0,0,0,4.92,9.13,13.08,13.08,0,0,0,7.57,2.78,14.33,14.33,0,0,0,10.25-2.7c2.9-2.24,4.21-5.39,5-8.83C1441.36,538.31,1441.09,535.19,1441.17,531.92Z"/><path class="cls-1" d="M1255.86,569.87a70.9,70.9,0,0,1-8.25-2.57c-9.48-4-15-11.22-17.18-21.1a49.54,49.54,0,0,1-1.16-11.2c0-5.34-.21-10.68.88-16,2.83-13.66,11.71-21.88,25.12-24.58a49,49,0,0,1,20.63,0c12.53,2.83,19.64,10.92,22.27,23.24a52.49,52.49,0,0,1,.95,11.8c0,2.89,0,5.77,0,8.65,0,1.73,0,1.74-1.71,1.74H1254c-2.18,0-2.21.05-1.89,2.2a20.82,20.82,0,0,0,1,4.26c1.68,4.6,5.3,6.73,9.85,7.5,6.11,1,12.19.48,18.25-.54a55.89,55.89,0,0,0,11-3c.86-.33,1.15-.08,1.37.72,1.15,4.39,2.31,8.77,3.52,13.14a1.27,1.27,0,0,1-.86,1.77,57.59,57.59,0,0,1-13.31,3.7c-.3.05-.59.15-.89.23Zm9.61-44.76c4,0,8.08,0,12.12,0,1,0,1.42-.28,1.34-1.32a37.32,37.32,0,0,0-.56-5.37c-1-4.41-3.34-7.66-7.88-8.9a17.91,17.91,0,0,0-9.58,0,10.93,10.93,0,0,0-7.57,6.86,20.44,20.44,0,0,0-1.38,7.08c0,1.53,0,1.58,1.51,1.58Z"/><path class="cls-1" d="M1194,569.87a60.55,60.55,0,0,1-8.8-2.74,29.06,29.06,0,0,1-16.32-17.69,44.12,44.12,0,0,1-2.38-13.8c-.12-5.57-.12-11.14,1.13-16.63,1.53-6.65,4.47-12.48,9.67-17.05a31.83,31.83,0,0,1,14.56-7.14,56.25,56.25,0,0,1,29.3,1,21.83,21.83,0,0,1,4.62,2.09,1,1,0,0,1,.49,1.33q-2.23,7-4.41,14.08c-.26.86-.64.95-1.42.61a36.12,36.12,0,0,0-15.3-2.91c-8.85.22-14.59,5.17-15.66,14a53.85,53.85,0,0,0,.16,15.16c1.27,7.75,6.88,12.58,14.72,12.88a35.19,35.19,0,0,0,16-2.86c.91-.4,1.28-.2,1.56.72q2.13,6.95,4.34,13.86c.27.83,0,1.2-.68,1.56a31.35,31.35,0,0,1-8.53,3.13c-.53.12-1,.28-1.56.43Z"/><path class="cls-1" d="M1064.6,541.3v26.17c0,1.71,0,1.71-1.75,1.71h-19.06c-1.86,0-1.86,0-1.86-1.83V515.24c0-1.83,0-1.83-1.85-1.83-3.92,0-7.85,0-11.78,0-1.11,0-1.45-.37-1.44-1.46q.06-7.85,0-15.68c0-1.07.35-1.42,1.4-1.41,4.08,0,8.16,0,12.24,0,1.12,0,1.46-.37,1.45-1.47,0-3.53-.08-7.07,0-10.6a47.74,47.74,0,0,1,1.11-9.6c2.17-9.25,8-14.69,17.24-16.66,5.63-1.2,11.31-1.08,17-.74,1.72.1,3.44.3,5.17.43.83.06,1.09.47,1.09,1.27q0,7.56,0,15.11c0,1-.35,1.27-1.31,1.21a77,77,0,0,0-11,.08,6.43,6.43,0,0,0-6.29,5.42,13.75,13.75,0,0,0-.42,3.19c0,3.65,0,7.31,0,11,0,1,.32,1.41,1.39,1.4,5.15,0,10.31,0,15.47,0,1.87,0,1.86,0,1.68,1.82q-.73,7.27-1.45,14.55c0,.31-.13.61-.13.91,0,1-.56,1.25-1.48,1.24-4.54,0-9.09,0-13.63,0-1.83,0-1.83,0-1.83,1.83Z"/></g></svg>
