<svg width="295" height="44" viewBox="0 0 295 44" fill="none" xmlns="http://www.w3.org/2000/svg">
<path d="M22 0L26.9393 15.2016H42.9232L29.992 24.5967L34.9313 39.7984L22 30.4033L9.06872 39.7984L14.008 24.5967L1.07676 15.2016H17.0607L22 0Z" fill="#FFC700"/>
<path d="M85 0L89.9393 15.2016H105.923L92.992 24.5967L97.9313 39.7984L85 30.4033L72.0687 39.7984L77.008 24.5967L64.0768 15.2016H80.0607L85 0Z" fill="#FFC700"/>
<path d="M147.5 0L152.327 15.2016H167.948L155.31 24.5967L160.137 39.7984L147.5 30.4033L134.863 39.7984L139.69 24.5967L127.052 15.2016H142.673L147.5 0Z" fill="#FFC700"/>
<path d="M210 0L214.939 15.2016H230.923L217.992 24.5967L222.931 39.7984L210 30.4033L197.069 39.7984L202.008 24.5967L189.077 15.2016H205.061L210 0Z" fill="#FFC700"/>
<path d="M273 0L277.939 15.2016H293.923L280.992 24.5967L285.931 39.7984L273 30.4033L260.069 39.7984L265.008 24.5967L252.077 15.2016H268.061L273 0Z" fill="#FFC700"/>
</svg>
