<svg width="95" height="64" viewBox="0 0 95 64" fill="none" xmlns="http://www.w3.org/2000/svg">
<path d="M0.197754 31.1153C0.685444 30.6025 1.13115 30.0554 1.66728 29.5824C9.20549 22.9177 16.7566 16.2615 24.3013 9.60533C25.787 8.29462 26.7042 8.29462 28.1867 9.59963C29.6401 10.879 31.0999 12.1555 32.5468 13.4463C33.7483 14.5177 33.745 15.4494 32.5274 16.5265C27.0886 21.3306 21.64 26.1289 16.1979 30.933C15.9621 31.1381 15.7393 31.3547 15.4776 31.5997C15.7393 31.8419 15.9621 32.0613 16.1946 32.2665C21.5722 37.0136 26.9497 41.7578 32.324 46.5049C33.8129 47.8184 33.8193 48.6334 32.353 49.9298C30.9029 51.2121 29.4527 52.5 27.9929 53.7737C26.7624 54.8507 25.7256 54.8536 24.5015 53.7737C16.7114 46.9095 8.92774 40.0396 1.15053 33.1641C0.788796 32.8449 0.514268 32.4517 0.197754 32.0955C0.197754 31.765 0.197754 31.4402 0.197754 31.1153Z" fill="#003F4F"/>
<path d="M79.2941 31.6615C75.3765 28.2081 71.6235 24.8971 67.8706 21.589C65.9618 19.905 64.0498 18.2239 62.1442 16.5342C60.8943 15.4258 60.9008 14.514 62.1572 13.397C63.6493 12.0721 65.1447 10.75 66.6497 9.43639C67.8738 8.36503 68.9364 8.35933 70.154 9.43354C77.9441 16.3005 85.7342 23.1732 93.5179 30.0459C94.7517 31.1344 94.7614 32.0519 93.547 33.1261C85.7407 40.0187 77.9312 46.9113 70.1185 53.7954C68.9428 54.8326 67.877 54.8269 66.6917 53.7926C65.164 52.4619 63.6461 51.1198 62.1345 49.7721C60.8911 48.6665 60.9008 47.7576 62.1701 46.6349C67.5896 41.848 73.0155 37.0639 78.4415 32.2827C78.6773 32.0775 78.955 31.9065 79.2941 31.6615Z" fill="#003F4F"/>
<path d="M33.4704 60.0194C33.6383 59.4866 33.8709 58.7058 34.1325 57.9308C40.3691 39.2984 46.6089 20.6689 52.852 2.0365C52.9554 1.72591 53.0555 1.41248 53.2008 1.11614C53.6304 0.261309 54.3926 -0.160405 55.4067 0.0561507C56.9215 0.378136 58.4298 0.754259 59.8993 1.21017C61.0975 1.58344 61.4528 2.44967 61.0523 3.68347C60.3999 5.68376 59.7249 7.67551 59.0564 9.67295C53.3042 26.855 47.552 44.0341 41.7966 61.2133C41.6739 61.5752 41.5641 61.9513 41.3638 62.279C40.9246 62.9942 40.1979 63.3703 39.3 63.1737C37.7562 62.8346 36.2286 62.4357 34.7235 61.9827C33.8063 61.7063 33.4187 61.0765 33.4704 60.0194Z" fill="#003F4F"/>
</svg>
