<svg width="65" height="75" viewBox="0 0 65 75" fill="none" xmlns="http://www.w3.org/2000/svg">
<path d="M20.035 0C21.7381 0.547518 23.3471 1.28793 24.7402 2.49403C26.5078 4.02357 27.8253 5.89799 28.5523 8.18744C28.7294 8.74664 28.9766 8.85965 29.4804 8.85965C38.6194 8.84602 47.7567 8.84991 56.8957 8.84991C57.1264 8.84991 57.357 8.84212 57.5858 8.85576C58.3165 8.89668 58.6984 9.27468 58.7003 10.0404C58.7095 15.0226 58.7095 20.0068 58.7003 24.989C58.6984 25.7158 58.2575 26.1854 57.6559 26.1795C57.0341 26.1737 56.6337 25.6905 56.6337 24.8955C56.6282 20.568 56.6319 16.2424 56.63 11.9148C56.63 11.6537 56.63 11.3927 56.63 11.0906C52.2884 11.0906 48.0168 11.0906 43.6475 11.0906C43.6475 11.3498 43.6475 11.607 43.6475 11.8642C43.6475 15.0733 43.594 18.2824 43.6733 21.4896C43.7065 22.8028 42.9316 23.5998 41.6381 22.8282C40.7617 22.304 39.8003 21.9377 38.8944 21.4662C38.4903 21.2558 38.1452 21.2343 37.7319 21.4526C36.7651 21.9592 35.7761 22.4209 34.7926 22.8905C33.6135 23.4517 32.9585 23.0191 32.9548 21.6591C32.9437 18.45 32.9511 15.2428 32.9511 12.0337C32.9511 11.7453 32.9511 11.457 32.9511 11.1101C31.6724 11.1101 30.4509 11.1101 29.3309 11.1101C29.1556 12.5422 29.1427 13.9763 28.7866 15.3071C27.5799 19.8236 24.8213 22.8262 20.5443 24.2096C20.1771 24.3285 19.9612 24.4376 19.9612 24.9228C19.976 33.4785 19.9723 42.0342 19.9741 50.5918C19.9741 50.6853 19.9944 50.7789 20.0184 50.9698C20.655 50.8003 21.2639 50.6327 21.8746 50.4768C26.2403 49.3584 30.4509 49.8358 34.5361 51.7921C34.9974 52.0142 35.5491 52.1077 36.0602 52.1194C37.8094 52.1584 39.5586 52.1428 41.3078 52.133C42.7674 52.1233 43.9501 52.6689 44.7915 53.9665C45.0387 54.3484 46.3433 54.4673 46.8987 54.1302C50.0502 52.2227 53.198 50.3073 56.3293 48.3608C56.5119 48.2478 56.619 47.8445 56.619 47.5756C56.6356 41.888 56.6319 36.2005 56.6319 30.511C56.6319 30.2674 56.6153 30.0219 56.6429 29.7822C56.7168 29.1626 57.0821 28.8022 57.6541 28.7924C58.2279 28.7846 58.597 29.1431 58.6911 29.755C58.728 29.9927 58.7058 30.2401 58.7058 30.4837C58.7058 35.6607 58.7058 40.8378 58.7058 46.0168C58.7058 46.2818 58.7058 46.5468 58.7058 46.6851C59.5823 46.654 60.4384 46.4767 61.2411 46.6247C62.6489 46.8839 63.6472 47.7821 64.0531 49.2941C64.483 50.8919 64.1656 52.3142 62.9921 53.4132C61.8924 54.4439 60.706 55.3733 59.5472 56.33C54.7812 60.2679 50.0022 64.1882 45.2454 68.1396C43.6235 69.486 41.8116 70.1544 39.7561 70.1446C37.1083 70.1349 34.4623 70.1427 31.8145 70.1407C31.63 70.1407 31.4436 70.1524 31.2628 70.1251C30.6797 70.0355 30.283 69.5503 30.3088 68.9814C30.3365 68.3949 30.7425 67.9682 31.3587 67.9565C32.3939 67.9351 33.4309 67.9487 34.466 67.9487C36.2853 67.9487 38.1028 67.9506 39.9221 67.9468C41.3743 67.9448 42.6732 67.4772 43.8246 66.5263C49.6996 61.6785 55.5801 56.8386 61.457 51.9927C62.2356 51.3498 62.3888 50.4125 61.8703 49.5377C61.3573 48.6726 60.4624 48.4095 59.5933 48.9376C54.8697 51.8057 50.1517 54.6875 45.4391 57.5751C45.2528 57.69 45.0793 57.8791 44.9723 58.0778C44.1955 59.4943 43.0128 60.1724 41.496 60.1782C37.4441 60.1958 33.394 60.1899 29.342 60.1802C28.5227 60.1782 28.0614 59.7632 28.0504 59.091C28.0393 58.3895 28.508 57.9862 29.3807 57.9843C33.2242 57.9784 37.0695 57.9823 40.913 57.9823C41.1436 57.9823 41.3743 57.9901 41.6031 57.9765C42.7194 57.9141 43.3006 57.3354 43.2895 56.3047C43.2785 55.1902 42.5884 54.366 41.5606 54.3484C39.6509 54.3173 37.7393 54.3562 35.8296 54.3231C35.3369 54.3153 34.8332 54.1887 34.3553 54.0464C32.2813 53.4288 30.248 52.4623 28.1371 52.2149C23.7715 51.7044 19.6955 52.8637 16.079 55.5857C15.9037 55.7163 15.7376 56.0085 15.7376 56.2248C15.7173 60.0165 15.7247 63.8082 15.7284 67.5999C15.7284 67.6915 15.7635 67.7811 15.7948 67.9429C16.0532 67.9429 16.3004 67.9429 16.5477 67.9429C19.7933 67.9429 23.0389 67.9429 26.2846 67.9429C26.4691 67.9429 26.6536 67.939 26.8363 67.9487C27.4341 67.9818 27.7662 68.3384 27.8382 68.9444C27.9065 69.5133 27.5061 70.0258 26.923 70.1115C26.6056 70.1582 26.279 70.1368 25.958 70.1368C22.8267 70.1388 19.6973 70.1368 16.5661 70.1368C16.317 70.1368 16.0679 70.1368 15.7192 70.1368C15.7192 71.15 15.721 72.1126 15.7192 73.0732C15.7155 74.3416 15.4074 74.667 14.2062 74.6689C10.2003 74.6689 6.19632 74.6689 2.19049 74.6689C1.01143 74.6689 0.699599 74.3494 0.699599 73.1394C0.697754 65.1 0.697754 57.0529 0.697754 49.0077C0.697754 47.8191 1.0059 47.4879 2.12406 47.484C4.65562 47.4782 7.18902 47.4821 9.72058 47.4821C11.1524 47.4821 11.348 47.6866 11.3757 49.1987C11.3775 49.3409 11.3904 49.4851 11.4052 49.7442C12.3518 49.7442 13.2854 49.7423 14.2172 49.7442C15.4055 49.7462 15.7173 50.0794 15.721 51.3537C15.7229 51.9031 15.721 52.4506 15.721 53.08C16.4222 52.6922 17.0532 52.398 17.616 52.0005C17.7968 51.8719 17.8743 51.4667 17.8762 51.188C17.8909 46.0831 17.8872 40.9781 17.8872 35.8751C17.8872 32.4477 17.8872 29.0204 17.8872 25.593C17.8872 25.3066 17.8872 25.0221 17.8872 24.8059C16.7008 24.6091 15.5716 24.5233 14.494 24.2252C9.32387 22.7931 5.66676 17.8284 5.62064 12.2675C5.57451 6.75337 9.21685 1.69906 14.339 0.167568C14.4903 0.122753 14.6379 0.0565054 14.7855 0C15.0162 0 15.2468 0 15.4756 0C15.9111 0.315651 16.2764 0.680013 16.1528 1.30742C16.031 1.92703 15.579 2.14331 15.0549 2.25437C14.9645 2.27385 14.8778 2.30503 14.7892 2.33036C9.8239 3.7391 6.7185 9.32534 7.96214 14.6135C9.24268 20.0594 14.3759 23.4634 19.4649 22.2417C23.908 21.1759 27.03 17.1776 27.1149 12.4487C27.2016 7.65551 24.2641 3.55205 19.8265 2.2797C19.2988 2.12772 18.7895 1.96989 18.6641 1.30547C18.546 0.678065 18.9058 0.311754 19.3449 0C19.5756 0 19.8044 0 20.035 0ZM2.80123 72.436C4.98221 72.436 7.10968 72.436 9.24822 72.436C9.24822 64.8448 9.24822 57.3004 9.24822 49.7364C7.07831 49.7364 4.95269 49.7364 2.80123 49.7364C2.80123 57.3159 2.80123 64.8428 2.80123 72.436ZM35.1081 11.079C35.1081 14.1867 35.1081 17.2147 35.1081 20.3186C35.9034 19.9347 36.634 19.6366 37.3112 19.2411C38.0124 18.8319 38.6416 18.8767 39.3298 19.2605C40.0291 19.6502 40.7691 19.962 41.52 20.3225C41.52 17.1776 41.52 14.1341 41.52 11.079C39.3593 11.079 37.2503 11.079 35.1081 11.079ZM13.5751 72.4574C13.5751 65.5813 13.5751 58.7773 13.5751 51.9713C12.8278 51.9713 12.1451 51.9713 11.4237 51.9713C11.4237 58.8163 11.4237 65.6242 11.4237 72.4574C12.158 72.4574 12.8444 72.4574 13.5751 72.4574Z" fill="#003F4F"/>
<path d="M25.8789 37.5309C25.1741 37.5309 24.5375 37.5329 23.899 37.5309C23.3713 37.529 22.7606 37.453 22.6794 36.845C22.6203 36.3968 22.8178 35.7674 23.1167 35.4342C24.7478 33.622 26.4435 31.8722 28.1245 30.1087C28.8238 29.3741 29.3294 29.3604 30.0158 30.0795C31.7631 31.9092 33.5142 33.737 35.2191 35.6096C35.4922 35.9097 35.6989 36.4709 35.6435 36.8625C35.5605 37.4393 34.9903 37.529 34.4829 37.529C33.7762 37.529 33.0695 37.529 32.2835 37.529C32.2835 37.8797 32.2835 38.1408 32.2835 38.4019C32.2835 40.904 32.2872 43.406 32.2816 45.908C32.2798 47.0382 31.9384 47.3967 30.8811 47.3987C29.6615 47.4026 28.4437 47.4045 27.224 47.3987C26.2516 47.3948 25.8881 47.0226 25.8844 45.9937C25.8752 43.4683 25.8807 40.941 25.8807 38.4156C25.8789 38.1525 25.8789 37.8895 25.8789 37.5309ZM26.2664 35.2783C27.9178 35.5102 27.9602 35.5628 27.9602 37.3536C27.9602 39.7075 27.9584 42.0634 27.9621 44.4173C27.9621 44.6706 27.9879 44.9239 28.0008 45.1675C28.7666 45.1675 29.4475 45.1675 30.2003 45.1675C30.2003 44.8635 30.2003 44.6024 30.2003 44.3393C30.2003 41.9601 30.2003 39.5809 30.2003 37.2016C30.2003 35.5979 30.3091 35.4693 31.7945 35.3095C31.8203 35.3076 31.8425 35.2452 31.8148 35.2861C30.8738 34.2904 29.9438 33.3044 29.0581 32.3671C28.1706 33.2908 27.2425 34.2592 26.2664 35.2783Z" fill="#003F4F"/>
<path d="M49.1037 47.4365C47.7475 47.4365 46.3895 47.4423 45.0333 47.4346C44.1126 47.4287 43.7657 47.078 43.7583 46.1369C43.7472 44.7281 43.7472 43.3194 43.7583 41.9126C43.7657 40.9988 44.1052 40.6091 44.9687 40.6032C47.7051 40.5857 50.4414 40.5857 53.1778 40.6013C54.069 40.6071 54.4233 41.0124 54.427 41.9535C54.4343 43.3369 54.4343 44.7223 54.427 46.1057C54.4214 47.0488 54.0672 47.4268 53.1741 47.4346C51.8179 47.4443 50.4617 47.4365 49.1037 47.4365ZM52.3272 42.8479C50.1407 42.8479 48.0169 42.8479 45.8839 42.8479C45.8839 43.6604 45.8839 44.4222 45.8839 45.1919C48.0557 45.1919 50.1776 45.1919 52.3272 45.1919C52.3272 44.3989 52.3272 43.6545 52.3272 42.8479Z" fill="#003F4F"/>
<path d="M49.0707 36.1227C50.425 36.1227 51.7794 36.1169 53.1337 36.1247C53.9622 36.1305 54.4142 36.5161 54.4253 37.1899C54.4364 37.8909 53.9603 38.3135 53.1042 38.3154C50.4176 38.3232 47.733 38.3232 45.0464 38.3154C44.2198 38.3135 43.7788 37.9182 43.7659 37.2308C43.753 36.5102 44.1921 36.1286 45.076 36.1227C46.4063 36.1169 47.7385 36.1227 49.0707 36.1227Z" fill="#003F4F"/>
<path d="M15.2984 15.0225C16.6804 13.189 18.0219 11.4061 19.3651 9.62322C19.8523 8.97827 20.3265 8.32358 20.8284 7.69032C21.297 7.09798 21.8432 7.0064 22.334 7.39805C22.8377 7.80138 22.8968 8.44828 22.4336 9.06595C20.3689 11.827 18.2968 14.5821 16.2155 17.3295C15.6896 18.0232 15.0143 18.0348 14.4589 17.3626C13.4163 16.1019 12.3904 14.8257 11.3737 13.5397C10.9235 12.9707 10.9604 12.3433 11.4217 11.9244C11.8775 11.5094 12.4753 11.5659 12.9403 12.1192C13.7153 13.0448 14.4662 13.9956 15.2984 15.0225Z" fill="#003F4F"/>
<path d="M7.12235 55.371C7.13342 55.9635 6.71088 56.4391 6.14627 56.4664C5.54475 56.4957 5.08347 56.0435 5.0724 55.41C5.06317 54.796 5.53922 54.2834 6.10567 54.2931C6.6463 54.3067 7.11127 54.7979 7.12235 55.371Z" fill="#003F4F"/>
</svg>
