<svg width="100" height="92" viewBox="0 0 100 92" fill="none" xmlns="http://www.w3.org/2000/svg">
<g clip-path="url(#clip0_148_478)">
<path d="M68.2383 71.3454C67.681 71.3454 67.1573 71.1418 66.7682 70.7707L60.6189 64.9747C60.225 64.6036 60.0088 64.1104 60.0088 63.5901C60.0088 63.0652 60.225 62.5721 60.6189 62.2056L66.7682 56.414C67.1621 56.043 67.6858 55.8394 68.2383 55.8394C68.7955 55.8394 69.3192 56.043 69.7131 56.414L75.8624 62.2056C76.2564 62.5766 76.4726 63.0698 76.4726 63.5901C76.4726 64.115 76.2564 64.6082 75.8624 64.9747L69.7131 70.7662C69.3192 71.1418 68.7955 71.3454 68.2383 71.3454ZM63.9001 63.5901L68.2383 67.6759L72.5764 63.5901L68.2383 59.5043L63.9001 63.5901ZM73.4844 64.4407H73.4892H73.4844Z" fill="#003F4F"/>
<path d="M15.5706 67.2504C15.0085 67.2504 14.4464 67.0468 14.0188 66.6441L8.02807 61.0019C7.17293 60.1965 7.17293 58.8843 8.02807 58.079L14.0236 52.4322C14.8788 51.6268 16.272 51.6268 17.1271 52.4322L23.1227 58.079C23.9778 58.8843 23.9778 60.1965 23.1227 61.0019L17.1319 66.6441C16.6947 67.0468 16.1326 67.2504 15.5706 67.2504ZM11.2276 59.5404L15.5658 63.6262L19.9039 59.5404L15.5658 55.4546L11.2276 59.5404ZM20.735 58.7622H20.7398H20.735Z" fill="#003F4F"/>
<path d="M63.9386 21.6917C63.3525 21.6917 62.8 21.4745 62.382 21.0854L56.3961 15.4477C55.5361 14.6378 55.5409 13.3256 56.3961 12.5157L62.382 6.87797C63.242 6.07258 64.6352 6.07258 65.4903 6.87797L71.4763 12.5157C72.3314 13.3211 72.3314 14.6378 71.4763 15.4432L65.4951 21.0854C65.0772 21.4791 64.5247 21.6917 63.9386 21.6917ZM59.6004 13.9862L63.9386 18.072L68.2767 13.9862L63.9386 9.90044L59.6004 13.9862Z" fill="#003F4F"/>
<path d="M40.0234 92.0003C39.5911 92.0003 39.1635 91.8465 38.832 91.5388C38.1738 90.9189 38.1738 89.919 38.832 89.2991L63.8231 65.7618C64.4813 65.1419 65.543 65.1419 66.2012 65.7618C66.8593 66.3817 66.8593 67.3816 66.2012 68.0015L41.2101 91.5343C40.8834 91.8465 40.451 92.0003 40.0234 92.0003Z" fill="#003F4F"/>
<path d="M72.269 61.6306C71.8367 61.6306 71.4091 61.4768 71.0776 61.1691C70.4194 60.5492 70.4194 59.5493 71.0776 58.9294L96.6068 34.8853C97.2649 34.2654 98.3267 34.2654 98.9848 34.8853C99.643 35.5052 99.643 36.5052 98.9848 37.125L73.4557 61.1691C73.129 61.4768 72.7014 61.6306 72.269 61.6306Z" fill="#003F4F"/>
<path d="M44.2557 74.3089C34.7627 74.3089 25.3274 70.8657 18.2461 64.1963C17.5879 63.5764 17.5879 62.5765 18.2461 61.9566C18.9042 61.3367 19.9659 61.3367 20.6241 61.9566C31.8226 72.5036 49.497 74.1687 62.6555 65.9157C63.429 65.4316 64.4715 65.6306 64.9855 66.3546C65.4995 67.0831 65.293 68.0649 64.5195 68.549C58.3558 72.4222 51.2889 74.3089 44.2557 74.3089Z" fill="#003F4F"/>
<path d="M72.3072 60.6034C71.9853 60.6034 71.6634 60.5174 71.3752 60.3364C70.6017 59.8523 70.3951 58.8704 70.9092 58.142C79.6719 45.7489 77.904 29.0982 66.7055 18.5557C66.0474 17.9358 66.0474 16.9359 66.7055 16.316C67.3637 15.6961 68.4254 15.6961 69.0836 16.316C81.411 27.9263 83.3567 46.2557 73.71 59.8976C73.3881 60.3591 72.85 60.6034 72.3072 60.6034Z" fill="#003F4F"/>
<path d="M59.4707 60.1692L29.3776 51.0882C28.2919 50.7625 27.3935 50.0657 26.8362 49.129L16.7764 32.1208L35.0993 14.8638L53.1581 24.3384C54.1525 24.8588 54.8924 25.7094 55.2383 26.732L64.2028 53.0927C64.4862 53.9252 64.001 54.8165 63.1122 55.0835C62.5838 55.2419 62.0361 55.1423 61.6182 54.8618L63.3621 56.5042L59.4707 60.1692ZM20.9512 32.6683L29.7764 47.5861C29.9157 47.8169 30.1367 47.9888 30.4057 48.0703L58.5483 56.5631L58.6108 56.5042L39.6392 38.6409C38.9811 38.021 38.9811 37.021 39.6392 36.4012C40.2974 35.7813 41.3591 35.7813 42.0173 36.4012L61.229 54.4953C61.1281 54.3641 61.0513 54.2193 60.9936 54.0564L52.0291 27.6957C51.9426 27.4423 51.7601 27.2342 51.5151 27.103L35.6806 18.8002L20.9512 32.6683Z" fill="#003F4F"/>
<path d="M16.3777 35.9841C15.7291 35.9841 15.0757 35.7489 14.5809 35.2828L1.48484 22.9486C0.826669 22.3287 0.826669 21.3288 1.48484 20.7089C2.143 20.089 3.20472 20.089 3.86288 20.7089L16.3777 32.4956L35.4981 14.4875L22.9785 2.70071C22.3204 2.08083 22.3204 1.08088 22.9785 0.461003C23.6367 -0.158876 24.6984 -0.158876 25.3566 0.461003L38.4527 12.7952C39.4423 13.7273 39.4423 15.2476 38.4527 16.1842L18.1744 35.2828C17.6796 35.7489 17.0262 35.9841 16.3777 35.9841Z" fill="#003F4F"/>
</g>
<defs>
<clipPath id="clip0_148_478">
<rect width="98.4896" height="92" fill="white" transform="translate(0.989746)"/>
</clipPath>
</defs>
</svg>
