<svg width="100" height="100" viewBox="0 0 100 100" fill="none" xmlns="http://www.w3.org/2000/svg">
<g clip-path="url(#clip0_148_298)">
<path d="M40.5288 73.3382C40.1636 73.4016 40.0216 73.1899 39.8643 73.0301C35.5595 68.7281 31.253 64.4269 26.9448 60.1266C26.6049 59.7893 26.5745 59.4925 26.7228 59.0614C28.0818 55.0825 29.6553 51.1801 31.4364 47.3714C34.5167 40.8029 38.2234 34.6187 42.7303 28.9239C49.2928 20.6322 57.1767 13.9028 66.4898 8.86612C70.526 6.68567 74.7534 4.87921 79.119 3.46935C79.9255 3.20813 79.9103 3.21574 80.1335 4.02982C82.4338 12.3143 87.732 17.5788 96.028 19.8232C96.6367 19.9881 96.6837 20.191 96.5112 20.7273C94.1084 28.2272 90.5365 35.3008 85.9275 41.6867C78.7576 51.6383 69.5941 59.3049 58.9318 65.2583C53.1948 68.4601 47.1903 71.0494 40.9841 73.1873C40.8091 73.2495 40.6278 73.3053 40.5288 73.3382ZM66.8829 25.0019C62.3024 24.993 58.668 28.5752 58.6629 33.0996C58.6579 37.624 62.3494 41.3228 66.8207 41.3152C71.2921 41.3076 74.9671 37.6265 74.9722 33.1605C74.9818 32.0923 74.7796 31.0328 74.3773 30.0432C73.975 29.0536 73.3806 28.1535 72.6285 27.3949C71.8763 26.6363 70.9813 26.0343 69.9951 25.6235C69.009 25.2128 67.9512 25.0015 66.8829 25.0019Z" fill="#003F4F"/>
<path d="M0.0251763 58.8687C-0.0572513 58.5999 0.0822412 58.4198 0.163401 58.2347C2.45743 53.0053 5.23587 48.0675 8.95653 43.6979C14.0683 37.6848 20.3024 33.4344 28.0797 31.6515C31.2534 30.9177 34.5208 30.6744 37.7682 30.93C38.3223 30.9731 38.3578 31.0568 37.985 31.5919C35.5982 35.0033 33.4353 38.5659 31.51 42.2574C30.0288 45.0851 28.6762 47.9733 27.452 50.9219C27.2999 51.2883 27.1604 51.5318 26.6734 51.3961C22.5457 50.2384 18.4699 50.6924 14.4323 51.864C9.53606 53.2855 5.07989 55.6314 0.836771 58.416C0.575539 58.5859 0.344742 58.7977 0.0251763 58.8687Z" fill="#003F4F"/>
<path d="M41.0464 99.8745C41.4179 99.2937 41.7908 98.7129 42.1585 98.1309C44.8736 93.8424 47.1283 89.3421 48.3863 84.3981C49.3196 80.7284 49.6214 77.0308 48.5663 73.3255C48.4256 72.8285 48.6208 72.6586 49.0317 72.4874C53.4831 70.6456 57.8023 68.4997 61.9589 66.0648C64.1147 64.7967 66.2134 63.4666 68.2538 62.0324C68.4352 61.9056 68.6216 61.652 68.8549 61.7674C69.0883 61.8828 69.035 62.177 69.0464 62.4014C69.5266 71.4298 66.8378 79.3876 60.9799 86.2747C56.9017 91.0832 51.8685 94.6654 46.3167 97.5717C44.8939 98.3173 43.4419 98.9995 41.9785 99.6589C41.7121 99.7781 41.4395 99.8833 41.1694 99.9949L41.0464 99.8745Z" fill="#003F4F"/>
<path d="M98.1714 2.61577e-05C100.089 -0.0101181 100.074 0.0279229 99.9607 1.53055C99.8022 3.71918 99.6792 5.90908 99.3786 8.08504C98.9491 11.1386 98.3462 14.1652 97.5728 17.1502C97.4371 17.6828 97.2292 17.8819 96.6458 17.7247C89.0371 15.678 84.2242 10.8502 82.207 3.24113C82.0726 2.73392 82.2299 2.53103 82.7257 2.40423C86.8217 1.35175 90.9609 0.550354 95.1837 0.229541L98.1714 2.61577e-05Z" fill="#003F4F"/>
<path d="M33.1371 76.5997C33.0598 76.7125 32.975 76.8201 32.8835 76.9217C31.869 77.9362 30.8456 78.9506 29.84 79.9765C29.5496 80.2744 29.3416 80.2554 29.055 79.9676C26.0471 76.942 23.0302 73.9245 20.0045 70.9151C19.6938 70.6044 19.6925 70.3926 20.0045 70.0858C21.035 69.084 22.0495 68.0696 23.048 67.0425C23.3155 66.7698 23.507 66.7686 23.7797 67.0425C26.8054 70.0858 29.8366 73.121 32.8733 76.1482C33.0002 76.2586 33.1346 76.3676 33.1371 76.5997Z" fill="#003F4F"/>
<path d="M23.2521 59.6612C23.436 59.6853 23.5425 59.826 23.6592 59.9427C29.1138 65.3978 34.5692 70.8482 40.0255 76.294C40.3552 76.6225 40.3095 76.8355 39.9976 77.117C39.6317 77.4372 39.2881 77.7821 38.9692 78.1492C38.6166 78.5664 38.3592 78.4979 38.0016 78.1352C35.6835 75.7932 33.3463 73.4676 31.0168 71.1382C28.0139 68.1346 25.0127 65.1336 22.0131 62.1351C21.2523 61.3743 21.2523 61.5379 22.036 60.7403C22.3188 60.455 22.6016 60.1709 22.8894 59.8907C22.9883 59.7855 23.0847 59.6637 23.2521 59.6612Z" fill="#003F4F"/>
<path d="M19.1879 79.4895C19.4191 79.465 19.6524 79.5118 19.8563 79.6235C20.0603 79.7352 20.2253 79.9066 20.3292 80.1146C20.4526 80.3145 20.5127 80.5471 20.5016 80.7817C20.4905 81.0164 20.4087 81.2422 20.267 81.4296C20.1255 81.6138 19.9686 81.7856 19.7978 81.9431C15.0483 86.6932 10.2984 91.4429 5.54798 96.1921C5.40479 96.3476 5.25052 96.4925 5.08639 96.6258C4.84608 96.7973 4.55345 96.8796 4.25896 96.8585C3.96447 96.8373 3.68657 96.7141 3.4732 96.5101C3.25982 96.306 3.12434 96.0339 3.0901 95.7407C3.05586 95.4475 3.12502 95.1515 3.28566 94.9038C3.42347 94.7169 3.57843 94.5432 3.74852 94.3851C8.49805 89.6351 13.2471 84.885 17.9958 80.1349C18.3446 79.7913 18.6832 79.4324 19.1879 79.4895Z" fill="#003F4F"/>
<path d="M1.14643 74.7192C1.13933 74.532 1.17348 74.3456 1.24645 74.1732C1.31943 74.0007 1.42945 73.8464 1.56871 73.7212C4.91654 70.3736 8.26564 67.0277 11.616 63.6834C12.1879 63.1154 12.9818 63.1268 13.4852 63.6454C13.9887 64.164 13.9925 64.897 13.4218 65.465C10.0528 68.8507 6.67584 72.2287 3.29081 75.5992C2.89643 75.9935 2.41835 76.1127 1.89588 75.882C1.40639 75.6651 1.13248 75.2923 1.14643 74.7192Z" fill="#003F4F"/>
<path d="M23.9761 97.3473C23.9761 97.1444 24.1397 96.8401 24.4047 96.575C27.7322 93.2486 31.061 89.9229 34.3911 86.5981C35.0341 85.9641 35.833 85.9451 36.3542 86.5081C36.8754 87.0711 36.8208 87.7596 36.1716 88.4101C32.8635 91.7256 29.5524 95.039 26.2384 98.3503C25.8123 98.7764 25.3304 98.9704 24.7496 98.7307C24.2297 98.5063 23.9799 98.0929 23.9761 97.3473Z" fill="#003F4F"/>
<path d="M2.54385 84.7253C2.53934 84.545 2.57384 84.3659 2.64497 84.2003C2.7161 84.0346 2.8222 83.8862 2.95599 83.7654C6.14911 80.5724 9.34307 77.3808 12.5379 74.1904C13.1123 73.6173 13.896 73.6058 14.402 74.1131C14.9258 74.6406 14.927 75.39 14.3462 75.9745C11.1607 79.1751 7.96843 82.3684 4.76939 85.5546C4.34584 85.9781 3.83986 86.1429 3.26921 85.8855C2.77845 85.6661 2.54892 85.2591 2.54385 84.7253Z" fill="#003F4F"/>
<path d="M13.9603 96.182C13.9536 95.992 13.9883 95.8029 14.0621 95.6277C14.1359 95.4525 14.247 95.2955 14.3876 95.1676C17.5647 91.9882 20.7435 88.8113 23.9239 85.637C24.5199 85.0436 25.3404 85.036 25.8451 85.5635C26.3498 86.091 26.3308 86.8315 25.7449 87.4262C22.5586 90.6208 19.368 93.812 16.1732 96.9999C15.7661 97.4057 15.2855 97.5616 14.7275 97.3207C14.4991 97.2313 14.3033 97.0745 14.1662 96.871C14.0292 96.6676 13.9573 96.4273 13.9603 96.182Z" fill="#003F4F"/>
</g>
<defs>
<clipPath id="clip0_148_298">
<rect width="100" height="100" fill="white"/>
</clipPath>
</defs>
</svg>
