<svg width="64" height="58" viewBox="0 0 64 58" fill="none" xmlns="http://www.w3.org/2000/svg">
<path d="M0.197754 52.0558C0.47845 50.5174 1.50582 49.4091 2.68852 48.35C6.65821 44.7959 10.6046 41.2198 14.5321 37.6265C15.9245 36.3534 17.51 35.6511 19.5237 35.8601C19.72 35.8802 19.9941 35.8158 20.1294 35.6963C21.5651 34.4312 22.9808 33.146 24.3532 31.9111C23.5588 30.642 22.7245 29.4614 22.0544 28.2073C20.4967 25.2913 19.8576 22.1965 20.0185 18.9529C20.2359 14.5779 21.8746 10.6893 24.9157 7.31409C28.0011 3.88966 31.942 1.61676 36.705 0.588825C38.0041 0.30848 39.3455 0.191921 40.6669 0C41.4945 0 42.3222 0 43.1499 0C43.7601 0.0753616 44.3725 0.142685 44.9816 0.226085C50.8097 1.02693 55.5582 3.53094 59.1662 7.74014C62.7387 11.9071 64.1966 16.672 63.6163 21.9041C63.1515 26.1012 61.3286 29.8 58.2221 32.9601C54.8903 36.3484 50.7597 38.5078 45.837 39.3066C39.7238 40.2984 34.0988 39.1428 29.0252 35.8691C28.9087 35.7937 28.7866 35.7274 28.6313 35.636C28.4505 35.7927 28.2707 35.9425 28.0988 36.0992C26.986 37.105 25.9009 38.137 24.7515 39.1066C24.26 39.5206 24.1224 39.9326 24.1723 40.5254C24.2966 41.9925 23.672 43.2354 22.5392 44.2644C18.2156 48.1902 13.9053 52.1271 9.54728 56.0208C6.72922 58.5389 2.45109 57.8847 0.728082 54.7115C0.470684 54.2362 0.370832 53.6916 0.197754 53.1781C0.197754 52.8054 0.197754 52.4306 0.197754 52.0558ZM41.8884 1.88002C31.0089 1.8338 22.0854 9.88644 22.0355 19.794C21.9867 29.6543 30.8492 37.721 41.8052 37.7873C52.7013 37.8536 61.6614 29.7648 61.6836 19.8402C61.7069 9.9628 52.8478 1.92624 41.8884 1.88002ZM15.0835 39.803C15.0014 39.8703 14.8617 39.9758 14.733 40.0914C10.9763 43.4917 7.22072 46.893 3.46737 50.2963C3.30761 50.442 3.15561 50.5958 3.0136 50.7565C1.87639 52.0397 2.05834 53.8665 3.42632 54.9436C4.82869 56.0479 6.76028 55.9263 8.20704 54.6191C11.9826 51.2087 15.7492 47.7913 19.5192 44.3769C19.6346 44.2724 19.7378 44.1579 19.8188 44.0765C18.2367 42.6486 16.6756 41.2399 15.0835 39.803ZM21.3609 42.6064C22.5203 41.5001 22.4027 39.6 21.0902 38.5027C19.7999 37.4246 17.7341 37.3984 16.7633 38.3892C18.2988 39.7969 19.8299 41.2017 21.3609 42.6064ZM26.9649 34.4151C26.561 34.0474 26.1594 33.6816 25.79 33.345C24.5396 34.4774 23.2903 35.6089 22.1154 36.673C22.476 37.0186 22.8776 37.4045 23.2581 37.7702C24.4686 36.675 25.7067 35.5536 26.9649 34.4151Z" fill="#003F4F"/>
<path d="M41.8718 3.97521C51.5065 4.00837 59.3438 11.1075 59.3694 19.8254C59.3938 28.5282 51.4189 35.7298 41.8219 35.6695C32.1373 35.6093 24.33 28.5121 24.3732 19.8073C24.4176 11.0613 32.2849 3.94305 41.8718 3.97521ZM41.863 33.8237C50.346 33.8217 57.3024 27.5164 57.3024 19.8304C57.3024 12.1415 50.3516 5.8462 41.8619 5.8472C33.3755 5.84821 26.4124 12.1505 26.4124 19.8314C26.4124 27.5043 33.3933 33.8257 41.863 33.8237Z" fill="#003F4F"/>
<path d="M54.9627 20.0622C54.9449 22.5532 54.0085 25.019 52.1391 27.1913C51.6797 27.7249 51.0673 27.8565 50.5825 27.537C50.0777 27.2044 50.0311 26.6196 50.5181 26.0489C51.9926 24.3206 52.8336 22.3773 52.8868 20.1929C52.9667 16.8559 51.5721 14.1118 48.7063 11.9957C48.4501 11.8067 48.1683 11.646 47.9153 11.4531C47.4038 11.0652 47.2995 10.5327 47.6379 10.1157C47.9763 9.69766 48.6087 9.60019 49.1246 9.96896C49.9656 10.5718 50.8454 11.1576 51.561 11.8721C53.8022 14.1088 54.9183 16.7725 54.9627 20.0622Z" fill="#003F4F"/>
<path d="M42.596 7.97415C42.9766 8.01234 43.5124 8.04953 44.0417 8.1239C44.7728 8.22742 45.1489 8.66361 45.0435 9.2405C44.9459 9.77116 44.4289 10.0556 43.7266 9.98021C43.1319 9.91689 42.535 9.87368 41.9403 9.81639C41.2225 9.74805 40.8064 9.37015 40.8464 8.83145C40.8874 8.29174 41.3401 7.97314 42.069 7.97314C42.1933 7.97415 42.3175 7.97415 42.596 7.97415Z" fill="#003F4F"/>
</svg>
