<svg width="198" height="103" viewBox="0 0 198 103" fill="none" xmlns="http://www.w3.org/2000/svg">
<g clip-path="url(#clip0_148_288)">
<path d="M156.247 2.56523e-05C158.126 0.894197 158.683 2.45416 158.671 4.43991C158.629 12.3055 158.671 20.175 158.671 28.0522C158.671 29.9877 155.714 32.1979 153.847 31.6173C152.931 31.3309 153.174 30.456 153.17 29.8019C153.139 26.1903 153.077 22.5749 153.17 18.9634C153.224 17.1519 152.54 16.6409 150.808 16.6409C109.71 16.6848 68.6109 16.6861 27.5104 16.6448C25.8557 16.6448 25.2681 17.1093 25.272 18.8357C25.3184 42.2467 25.3184 65.659 25.272 89.0726C25.272 90.7681 25.7746 91.2829 27.4679 91.2829C68.6328 91.239 109.795 91.239 150.955 91.2829C152.668 91.2829 153.186 90.71 153.159 89.0455C153.077 84.2069 153.205 79.3684 153.093 74.5336C153.05 72.6485 153.615 71.7698 155.559 71.4369C158.652 70.9221 158.652 70.7944 158.652 74.0691C158.652 79.6793 158.652 85.2895 158.652 90.8997C158.652 91.7358 158.803 92.63 158.37 93.3732C157.303 95.2041 158.424 95.1731 159.746 95.1654C164.451 95.1344 169.152 95.1654 173.853 95.1654C174.897 95.1654 175.929 95.2041 176.869 95.6918C178.233 96.3963 179.057 97.546 179.072 99.0827C179.072 100.972 177.951 102.179 176.366 102.954C118.183 102.954 60.0001 102.965 1.81707 102.988C0.367333 102.988 -0.115918 102.675 0.0503193 101.208C0.123394 99.9884 0.127278 98.7658 0.0619286 97.546C1.22172 95.746 2.92662 95.1305 5.01812 95.1576C9.52585 95.2118 14.0336 95.1847 18.549 95.1576C19.1483 95.1576 19.8248 95.3976 20.4318 94.8093C19.4846 93.4816 19.3996 91.9603 19.3996 90.4003C19.415 81.5051 19.415 72.6098 19.3996 63.7146C19.3996 44.1821 19.3996 24.651 19.3996 5.12119C19.3996 3.0193 19.6586 1.11871 21.7192 -0.00384521L156.247 2.56523e-05ZM89.5323 97.186C87.8661 97.186 86.196 97.186 84.5297 97.186C83.6019 97.186 82.8557 97.5266 82.906 98.6376C82.9485 99.6633 83.6096 100.116 84.5645 100.124C87.8351 100.142 91.1058 100.142 94.3764 100.124C95.3042 100.124 96.0774 99.7369 96.1238 98.7305C96.1818 97.5692 95.3274 97.1821 94.3416 97.1821C92.7372 97.1589 91.1367 97.186 89.5323 97.186ZM31.9369 12.3868C33.3171 12.3675 34.2063 11.6397 34.2565 10.3082C34.2794 10.0123 34.241 9.71492 34.1439 9.4346C34.0467 9.15428 33.8927 8.89707 33.6917 8.67906C33.4906 8.46105 33.2468 8.28693 32.9755 8.16762C32.7041 8.0483 32.4111 7.98634 32.1148 7.98563C30.7887 7.90821 29.946 8.7211 29.888 10.1185C29.83 11.5159 30.5181 12.2823 31.9369 12.3868ZM40.4421 12.3868C41.8338 12.3675 42.7153 11.6126 42.7617 10.2965C42.7813 10.0019 42.7402 9.7064 42.641 9.42831C42.5419 9.15023 42.3867 8.8955 42.1852 8.67993C41.9837 8.46435 41.74 8.29252 41.4695 8.17509C41.1989 8.05765 40.9071 7.99712 40.6122 7.99724C39.2862 7.92757 38.4473 8.74432 38.3931 10.1417C38.339 11.5391 39.0271 12.2862 40.4344 12.3868H40.4421ZM49.1676 12.3868C50.4743 12.2746 51.3209 11.4888 51.2514 10.1572C51.2519 9.86161 51.192 9.56906 51.0752 9.29757C50.9585 9.02608 50.7875 8.78141 50.5727 8.57866C50.3579 8.37591 50.1038 8.21938 49.8263 8.11872C49.5487 8.01805 49.2535 7.9754 48.9588 7.99337C47.6405 8.02821 46.8519 8.89916 46.8751 10.2927C46.8983 11.6862 47.7024 12.352 49.1599 12.3636L49.1676 12.3868Z" fill="#003F4F"/>
<path d="M198 37.1604C197.271 38.3048 196.268 39.2483 195.081 39.9048C182.857 46.5111 170.637 53.1251 158.42 59.7469C156.325 60.8772 156.267 60.8578 155.857 58.6282C154.987 53.9309 153.275 49.43 150.804 45.3434C149.985 43.977 149.981 43.2957 151.728 42.7731C164.969 38.8132 178.183 34.7527 191.42 30.7734C194.44 29.8638 195.94 30.5063 197.992 33.2934L198 37.1604Z" fill="#003F4F"/>
<path d="M89.4046 33.2082C106.673 33.2082 123.941 33.2082 141.209 33.2082C142.183 33.2082 143.648 32.7669 143.938 33.9166C144.162 34.8185 142.554 34.7372 141.912 35.3217C141.866 35.3643 141.792 35.3798 141.75 35.4224C138.348 38.7203 134.165 38.8171 129.742 38.8016C100.361 38.6971 70.9793 38.7474 41.5979 38.7474C38.8298 38.7474 38.826 38.7474 38.826 41.5035C38.826 48.3395 38.8723 55.1793 38.7912 62.0191C38.7718 63.7378 39.3517 64.2255 41.0218 64.2216C54.5528 64.1674 68.0837 64.1907 81.6146 64.1907C82.1945 64.1907 82.7744 64.1907 83.3543 64.1907C84.5141 64.1907 84.9007 64.6629 84.2435 65.739C83.5863 66.8151 82.9291 67.8099 82.3105 68.8628C81.8388 69.637 81.1043 69.7338 80.3041 69.7338C65.8066 69.7338 51.3105 69.7273 36.8156 69.7144C34.2912 69.7144 33.3363 68.5802 33.3363 65.6732C33.3015 58.6437 33.3363 51.6103 33.3363 44.5808C33.3363 42.1267 33.3053 39.6764 33.3363 37.2262C33.3904 34.1295 34.3414 33.1927 37.4342 33.1889C54.7512 33.1966 72.0747 33.2031 89.4046 33.2082Z" fill="#003F4F"/>
<path d="M112.906 78.3232C109.953 78.4239 107.223 77.6342 104.494 76.8794C100.195 75.6911 95.8843 74.6343 91.3495 75.3311C90.4642 75.4704 90.1897 75.1298 90.6343 74.4021C95.4668 66.3158 100.806 58.7754 110.668 56.2554C112.858 55.6809 115.156 55.6609 117.356 56.1974C125.71 58.245 128.324 67.2913 122.494 74.0034C119.958 76.9259 116.815 78.5361 112.906 78.3232Z" fill="#003F4F"/>
<path d="M131.822 65.5068C130.875 65.6267 130.334 65.2668 130.276 64.2642C130.121 61.9308 129.283 59.6947 127.867 57.8347C127.195 56.8941 127.411 56.3909 128.347 55.876C134.335 52.5742 139.945 48.6569 145.57 44.8015C146.563 44.1241 147.205 44.0931 147.916 45.1886C150.963 49.8762 152.583 55.0593 153.414 60.5366C153.53 61.3107 153.344 61.8294 152.544 61.9688C145.639 63.1533 138.732 64.3326 131.822 65.5068Z" fill="#003F4F"/>
<path d="M133.724 27.9167C132.247 27.9167 130.763 27.9748 129.29 27.9167C127.357 27.8238 126.228 26.709 126.259 25.1142C126.29 23.5194 127.384 22.4743 129.205 22.4317C132.356 22.3504 135.506 22.3581 138.657 22.4317C140.389 22.4704 141.599 23.6665 141.63 25.1219C141.661 26.5774 140.505 27.7812 138.738 27.8974C137.072 28.0019 135.394 27.8974 133.712 27.8974L133.724 27.9167Z" fill="#003F4F"/>
<path d="M84.0892 22.393C85.6975 22.393 87.3057 22.3311 88.9062 22.393C90.731 22.482 91.7864 23.5542 91.8057 25.1026C91.825 26.6509 90.7851 27.8122 88.9758 27.8703C85.8289 27.958 82.682 27.958 79.5351 27.8703C77.6021 27.8161 76.4694 26.6471 76.5119 25.0639C76.5544 23.4807 77.7065 22.4549 79.6588 22.3814C81.1356 22.3311 82.6124 22.3814 84.0892 22.3814V22.393Z" fill="#003F4F"/>
<path d="M109.083 22.393C110.629 22.393 112.176 22.3311 113.722 22.393C115.593 22.4821 116.842 23.6743 116.815 25.1917C116.78 26.6394 115.585 27.8239 113.811 27.8703C110.664 27.9555 107.513 27.9555 104.359 27.8703C102.588 27.82 101.401 26.6239 101.374 25.1607C101.347 23.6472 102.603 22.513 104.467 22.3621C104.594 22.3621 104.722 22.3621 104.853 22.3621H109.106L109.083 22.393Z" fill="#003F4F"/>
</g>
<defs>
<clipPath id="clip0_148_288">
<rect width="198" height="103" fill="white"/>
</clipPath>
</defs>
</svg>
