<svg width="107" height="103" viewBox="0 0 107 103" fill="none" xmlns="http://www.w3.org/2000/svg">
<g clip-path="url(#clip0_148_311)">
<path d="M63.4303 0.016017C64.9922 0.016017 66.5563 -0.0320363 68.1159 0.0320369C69.488 0.0869569 70.7754 0.475973 71.5872 1.69794C72.6117 3.24028 72.12 4.94508 70.4027 5.95424C69.6107 6.42891 68.6977 6.66267 67.7752 6.62701C66.8102 6.58353 66.4923 7.01373 66.5335 7.92678C66.5815 8.99314 66.5883 10.0641 66.5335 11.1304C66.4832 12.1053 66.9222 12.4645 67.8415 12.6041C74.0037 13.5386 79.9034 15.7489 85.1638 19.0938C87.0998 20.3185 88.935 21.6959 90.652 23.2128C91.2694 23.7552 91.7016 23.7391 92.2802 23.1373C92.9113 22.4806 92.4425 22.151 92.0515 21.7368C90.1398 19.7689 90.142 18.8696 92.0515 16.9542C93.5059 15.4966 94.9511 14.032 96.4192 12.5881C97.7318 11.2952 98.9964 11.3021 100.293 12.5881C102.183 14.4722 104.07 16.36 105.953 18.2517C107.384 19.6911 107.384 20.7941 105.934 22.27C104.485 23.746 103.03 25.1899 101.569 26.6407C99.8494 28.3524 98.738 28.3524 96.9955 26.6865C96.6182 26.3272 96.298 25.6659 95.5914 26.2426C94.99 26.7346 94.6904 27.1579 95.3421 27.9199C97.1255 29.959 98.7084 32.1652 100.069 34.508C103.499 40.4737 105.619 46.8444 106.165 53.7437C107.185 66.5881 103.421 77.9108 95.0334 87.5492C87.3522 96.3799 77.5328 101.467 65.8383 102.806C64.2089 102.972 62.5707 103.037 60.9332 103C59.4857 102.989 58.5458 102.265 58.1891 101.016C58.0024 100.408 58.036 99.753 58.2841 99.1671C58.5321 98.5811 58.9786 98.1014 59.5451 97.8124C59.8205 97.6875 60.05 97.4796 60.2017 97.2179C60.3534 96.9562 60.4196 96.6536 60.3912 96.3524C60.3638 94.9413 60.3638 93.5301 60.3912 92.119C60.4209 90.4989 61.3059 89.5126 62.6597 89.5034C64.0135 89.4943 64.9213 90.4829 64.9465 92.0938C64.9724 93.4668 64.9724 94.8398 64.9465 96.2128C64.9465 96.8993 65.1752 97.1579 65.9023 97.071C69.7615 96.5962 73.5268 95.5408 77.0709 93.9405C79.4423 92.8879 79.3028 93.0938 78.1937 90.8787C77.6815 89.8536 77.1486 88.8398 76.6684 87.8032C76.0533 86.4737 76.4283 85.2357 77.5831 84.6591C78.7814 84.0572 80.0437 84.5126 80.7228 85.8261C81.3723 87.0771 82.0034 88.3387 82.6163 89.611C82.9364 90.2792 83.332 90.4348 83.9563 89.9863C87.5799 87.3732 90.7542 84.1874 93.3549 80.5538C93.7597 79.9954 93.4693 79.6499 93.0279 79.3204C92.0172 78.5721 91.0064 77.8238 90.0094 77.0572C88.7037 76.0504 88.4361 74.7849 89.2799 73.7025C90.1237 72.6202 91.4318 72.4806 92.7101 73.4142C93.5104 74 94.3428 74.5584 95.0814 75.2083C95.8658 75.8948 96.2797 75.8398 96.7416 74.8513C98.3766 71.4009 99.5204 67.7383 100.14 63.9703C100.279 63.1053 100.314 62.2243 100.462 61.3639C100.59 60.6133 100.252 60.405 99.5909 60.4096C98.4864 60.4096 97.3796 60.4325 96.2751 60.4096C94.5989 60.357 93.698 59.4714 93.7368 57.9703C93.7734 56.6224 94.6767 55.8673 96.3049 55.8444C97.3728 55.8284 98.4407 55.8192 99.5063 55.8444C100.263 55.8604 100.67 55.5858 100.599 54.778C100.208 50.3021 99.2548 45.9657 97.4322 41.8398C97.1349 41.1671 96.7096 41.3227 96.2248 41.5652C94.8962 42.2311 93.579 42.9268 92.2253 43.5378C90.9744 44.103 89.7967 43.7666 89.1999 42.7918C88.4658 41.5881 88.8432 40.1831 90.1398 39.4897C91.4364 38.7963 92.7147 38.1625 94.0273 37.5423C94.7316 37.2082 94.9054 36.8558 94.4434 36.1442C92.0638 32.4984 89.1437 29.236 85.7835 26.4691C85.2278 26.0115 84.855 25.9726 84.3977 26.611C83.5744 27.7552 82.7283 28.8993 81.7999 29.9451C80.7983 31.0893 79.6938 31.1831 78.6922 30.3593C77.622 29.4783 77.4665 28.3433 78.3263 27.1144C79.0672 26.0526 79.8516 25.0183 80.6703 24.0137C81.0956 23.4897 81.0476 23.2128 80.4599 22.8696C76.2934 20.4645 71.8342 19.0137 67.1463 18.1968C66.3894 18.0641 66.0738 18.3455 66.0807 19.0915C66.0807 19.968 66.1104 20.849 66.0578 21.7231C65.9686 23.2426 65.0425 24.119 63.6567 24.0572C62.3418 24 61.5392 23.0984 61.5049 21.6087C61.4851 20.6567 61.4851 19.7033 61.5049 18.7483C61.5209 18.0618 61.2762 17.7346 60.549 17.6224C59.0946 17.3936 58.3423 16.6568 58.1159 15.4188C57.8895 14.1808 58.3766 13.1304 59.6412 12.3959C59.8786 12.2779 60.0749 12.0909 60.2042 11.8594C60.3336 11.6279 60.39 11.3626 60.3661 11.0984C60.3501 9.99085 60.3363 8.88559 60.3661 7.78033C60.3912 6.93593 60.0162 6.63616 59.1998 6.63616C57.9101 6.63616 56.7095 6.32723 55.7491 5.37986C55.4211 5.07355 55.169 4.69482 55.0131 4.27382C54.8571 3.85282 54.8016 3.4012 54.8509 2.95494C54.9003 2.50867 55.053 2.08009 55.2971 1.70335C55.5411 1.3266 55.8698 1.0121 56.2568 0.784899C57.0723 0.279133 58.014 0.0141935 58.9734 0.0205981H63.4326L63.4303 0.016017ZM99.2411 22.2426C99.3874 22.1945 99.5223 22.1922 99.5932 22.1213C100.158 21.5584 100.892 21.0687 101.21 20.3844C101.494 19.7735 100.606 19.4508 100.247 18.9954C99.9968 18.7082 99.7296 18.4362 99.4469 18.1808C98.3218 17.0595 98.3218 17.0595 97.2287 18.1556C96.1357 19.2517 96.1425 19.2449 97.1875 20.2975C97.6975 20.8101 98.2052 21.3249 98.7243 21.8284C98.889 21.9755 99.0615 22.1138 99.2411 22.2426Z" fill="#003F4F"/>
<path d="M61.7202 69.8329C58.4775 69.6796 55.9598 68.3798 54.3865 65.5927C52.8132 62.8055 52.8818 59.9016 54.5054 57.1098C55.2366 55.8136 56.2867 54.7258 57.556 53.9496C63.1448 50.5423 68.6857 47.0526 74.2494 43.6041C75.4682 42.8467 76.5521 42.8672 77.4097 43.6155C78.2283 44.3295 78.3518 45.3203 77.7412 46.6521C75.0108 52.6018 72.2721 58.5515 69.5249 64.5011C67.9745 67.8375 65.3012 69.5789 61.7202 69.8329ZM70.3847 51.6888C69.7536 51.6476 69.47 51.9176 69.1636 52.1213C67.9059 52.9084 66.6504 53.6994 65.3973 54.4943C63.4695 55.7185 61.5098 56.9062 59.6278 58.1853C58.8702 58.6812 58.311 59.4278 58.0481 60.2946C57.7851 61.1614 57.8351 62.0931 58.1894 62.9267C58.4948 63.7168 59.0672 64.3749 59.807 64.7866C60.5468 65.1984 61.4074 65.3378 62.2393 65.1808C63.8995 64.8947 64.8805 63.7757 65.5436 62.3158C66.19 60.897 66.8357 59.4767 67.4805 58.0549L70.3847 51.6888Z" fill="#003F4F"/>
<path d="M24.7933 61.8124C17.5214 61.8124 10.2479 61.8124 2.97298 61.8124C2.41859 61.839 1.86868 61.7012 1.39228 61.4162C0.915883 61.1313 0.534203 60.7118 0.29517 60.2105C-0.217065 59.2449 -0.0226867 58.2929 0.555865 57.3959C0.9039 56.8884 1.4238 56.5243 2.0194 56.3707C2.79159 56.1564 3.5923 56.063 4.39306 56.0938C18.1411 56.0938 31.8891 56.0938 45.6371 56.0938C46.3988 56.0631 47.1609 56.1448 47.8987 56.3364C49.1816 56.7208 50.1215 58.0481 49.9866 59.2746C49.9112 59.9258 49.6145 60.5313 49.1461 60.9895C48.6778 61.4478 48.0662 61.7311 47.4139 61.7918C46.9963 61.8235 46.5772 61.8334 46.1585 61.8215L24.7933 61.8124Z" fill="#003F4F"/>
<path d="M33.2702 45.3089C29.1952 45.3089 25.1202 45.3089 21.0429 45.3089C20.3962 45.3093 19.7507 45.2557 19.1129 45.1487C17.4961 44.8719 16.554 43.659 16.6843 42.0984C16.8124 40.5789 17.8712 39.6155 19.5634 39.6064C23.8305 39.5789 28.0953 39.5927 32.3693 39.5927H46.6524C47.3864 39.5927 48.1251 39.6087 48.7356 40.0503C49.6183 40.7048 50.1443 41.5858 49.9522 42.7094C49.751 43.8833 49.0809 44.7391 47.8941 45.0572C47.1528 45.2392 46.3911 45.3246 45.6279 45.3112C41.498 45.3021 37.3841 45.3089 33.2702 45.3089Z" fill="#003F4F"/>
<path d="M33.8373 77.3661C29.5336 77.3661 25.23 77.3661 20.9286 77.3661C19.9292 77.3661 19.0237 77.1624 18.3857 76.3341C17.1485 74.7322 17.83 72.5286 19.7577 71.865C20.3044 71.6953 20.8756 71.618 21.4477 71.6361H46.2362C47.3796 71.6361 48.5001 71.7711 49.2593 72.6888C49.9453 73.5057 50.2426 74.4874 49.7784 75.5698C49.5856 76.072 49.2497 76.5066 48.8122 76.8194C48.3748 77.1323 47.8551 77.3096 47.3178 77.3295C46.3711 77.3981 45.4152 77.357 44.4639 77.357L33.8373 77.3661Z" fill="#003F4F"/>
<path d="M39.8542 31.8352C37.5674 31.8352 35.2806 31.8513 32.9939 31.8352C31.1416 31.8192 30.0485 30.8902 29.941 29.2838C29.829 27.6316 30.8397 26.4188 32.6691 26.3089C37.5636 25.9828 42.4746 25.9874 47.3685 26.3227C48.1001 26.3635 48.7862 26.6912 49.278 27.2348C49.7698 27.7784 50.0278 28.494 49.996 29.2265C49.8793 30.7185 48.6948 31.8009 47.0483 31.8238C44.6495 31.8581 42.2507 31.8329 39.8542 31.8352Z" fill="#003F4F"/>
<path d="M41.5828 90.643C39.8312 90.643 38.0772 90.6613 36.3233 90.643C34.5693 90.6247 33.3505 89.5881 33.2247 88.0595C33.1013 86.6636 34.2057 85.3867 35.8088 85.0503C36.7235 84.8604 37.6382 84.9382 38.5529 84.9336C40.9929 84.9336 43.4305 84.9176 45.8705 84.9336C46.4791 84.9309 47.0862 84.993 47.6817 85.119C49.1223 85.4439 50.1376 86.7917 49.9959 88.0938C49.9234 88.786 49.5967 89.4267 49.0792 89.8917C48.5617 90.3567 47.8901 90.613 47.1946 90.6109C45.3286 90.6613 43.4603 90.6109 41.592 90.6109L41.5828 90.643Z" fill="#003F4F"/>
</g>
<defs>
<clipPath id="clip0_148_311">
<rect width="107" height="103" fill="white"/>
</clipPath>
</defs>
</svg>
