<svg width="108" height="103" viewBox="0 0 108 103" fill="none" xmlns="http://www.w3.org/2000/svg">
<g clip-path="url(#clip0_148_320)">
<path d="M70.8588 71.1724H98.6746C99.2257 71.1724 99.7768 71.1724 100.326 71.1724C102.054 71.1411 102.67 70.5515 102.682 68.7913C102.706 65.6606 102.682 62.5298 102.682 59.3991C102.682 54.529 102.682 49.6589 102.682 44.7889C102.659 37.9778 102.626 31.1672 102.583 24.3573C102.583 23.5172 102.602 22.6771 102.558 21.8405C102.501 20.7099 102.211 20.4334 101.053 20.4055C99.8655 20.3777 98.6764 20.3551 97.4907 20.4055C96.6858 20.4351 96.4163 20.1203 96.4476 19.3341C96.4963 18.1479 96.4581 16.9582 96.465 15.7686C96.465 15.3824 96.4754 14.958 97.0178 14.965C98.9545 14.9893 100.907 14.7476 102.826 15.1094C106.041 15.7146 107.868 17.8922 107.993 21.1726C108.012 21.6944 108.007 22.2162 108.007 22.738C108.007 41.4923 108.007 60.2473 108.007 79.0028C108.03 79.6689 108.002 80.3359 107.923 80.9978C107.374 84.5529 105.204 86.4488 101.566 86.5131C99.0467 86.5583 96.5241 86.527 94.0033 86.527H72.0984C70.9823 86.527 70.9979 86.527 71.0918 87.6141C71.2309 89.2299 71.3613 90.8457 71.4656 92.4633C71.6116 94.7574 72.5869 96.5802 74.5184 97.8395C75.7353 98.6291 76.987 99.3544 78.2248 100.101C78.4717 100.252 78.729 100.388 78.9637 100.558C79.5339 100.97 80.1493 101.386 79.899 102.236C79.6486 103.087 78.915 103 78.2492 103C66.8053 103 55.3608 103 43.9158 103C43.6828 103 43.4516 103 43.2204 103C42.605 102.983 41.9061 103 41.6749 102.304C41.428 101.551 41.9513 101.026 42.5233 100.655C43.7871 99.8379 45.0597 99.0257 46.3757 98.2934C48.8896 96.8916 50.0735 94.7331 50.2161 91.9119C50.2873 90.4944 50.4473 89.0821 50.5325 87.6663C50.6003 86.5618 50.5568 86.5305 49.4737 86.5305C46.6922 86.5305 43.9106 86.5062 41.129 86.5531C40.2841 86.567 39.9886 86.254 40.0181 85.4487C40.1798 81.1004 40.0511 76.7521 40.0876 72.4039C40.0981 71.1603 40.0876 71.1568 41.3046 71.1568H70.8588V71.1724ZM64.4803 79.0637C64.4908 76.7365 62.7888 74.9189 60.5931 74.9085C58.4391 74.898 56.6832 76.7017 56.6641 78.9419C56.6433 81.2865 58.3765 83.0919 60.6487 83.0936C62.7419 83.0954 64.4699 81.2743 64.4803 79.0637Z" fill="#003F4F"/>
<path d="M91.3105 27.2497C91.3105 34.5253 91.2219 41.8025 91.3505 49.0746C91.4096 52.3949 89.3478 54.5482 85.9907 54.4508C79.88 54.2768 73.7675 54.376 67.6567 54.3655C65.8904 54.3655 64.1258 54.4629 62.3595 54.4595C58.9712 54.4595 57.144 52.5984 57.144 49.2415C57.144 34.5467 57.144 19.8513 57.144 5.15532C57.144 4.39699 57.1701 3.64734 57.4187 2.92379C58.0498 1.09056 59.6787 0.01393 61.9075 0.0104514C67.7592 1.55512e-05 73.6121 1.55512e-05 79.4662 0.0104514C81.7558 0.0104514 84.0436 0.00175486 86.3332 0.0104514C89.426 0.0226265 91.314 1.92369 91.3123 4.99356C91.3123 12.4146 91.3123 19.8357 91.3123 27.2567L91.3105 27.2497ZM87.9013 25.8583C87.9013 19.7707 87.884 13.6831 87.9205 7.59557C87.9205 6.69809 87.6423 6.47371 86.78 6.47719C78.4092 6.50502 70.0384 6.49285 61.6658 6.49459C60.5167 6.49459 60.5115 6.49459 60.5115 7.65818C60.5115 19.8577 60.5051 32.0583 60.4924 44.2602C60.4924 45.1489 60.7618 45.3838 61.6311 45.382C70.0019 45.3524 78.3745 45.3646 86.7453 45.3629C87.8961 45.3629 87.8996 45.3629 87.8996 44.1958C87.9008 38.0827 87.9013 31.9685 87.9013 25.8531V25.8583ZM74.1864 47.3387C72.6722 47.3387 71.6222 48.3823 71.6291 49.8903C71.6212 50.2309 71.6814 50.5696 71.806 50.8866C71.9307 51.2036 72.1173 51.4926 72.355 51.7365C72.5927 51.9805 72.8766 52.1745 73.1902 52.3073C73.5038 52.44 73.8407 52.5089 74.1812 52.5097C75.5459 52.5253 76.7542 51.3096 76.7768 49.9007C76.7994 48.4919 75.6572 47.3405 74.1864 47.3335V47.3387Z" fill="#003F4F"/>
<path d="M35.2928 78.1697C35.2928 85.0678 35.2928 91.967 35.2928 98.8674C35.3043 99.3303 35.2729 99.7931 35.199 100.25C34.8999 101.843 33.7143 102.873 32.1045 102.875C22.4848 102.889 12.8652 102.889 3.24558 102.875C1.56968 102.875 0.394471 101.85 0.100667 100.205C0.0296318 99.7768 -0.00411929 99.3432 -0.000179332 98.9092C-0.000179332 85.0573 -0.000179332 71.2049 -0.000179332 57.3519C-0.00408821 56.8884 0.034912 56.4255 0.116307 55.9692C0.406634 54.4455 1.61836 53.3863 3.16388 53.3846C12.809 53.3683 22.4547 53.3683 32.101 53.3846C33.723 53.3846 34.893 54.4073 35.1938 56.0126C35.2677 56.4726 35.2986 56.9384 35.2859 57.4041C35.2928 64.3219 35.2952 71.2438 35.2928 78.1697ZM31.5933 76.1225C31.5933 70.5312 31.5933 64.9388 31.5933 59.3452C31.5933 57.7137 31.1744 57.2997 29.5315 57.2997C21.6249 57.2997 13.7177 57.2997 5.80985 57.2997C4.14264 57.2997 3.69063 57.7415 3.69063 59.4026C3.69063 70.5886 3.69063 81.7741 3.69063 92.959C3.69063 94.6792 4.11656 95.1053 5.86547 95.107C13.7721 95.107 21.6793 95.107 29.5871 95.107C31.1379 95.107 31.5933 94.6392 31.5933 93.0738C31.5945 87.4222 31.5945 81.7718 31.5933 76.1225ZM19.7716 99.3492C19.7716 98.1317 18.8537 97.262 17.5933 97.2725C17.0387 97.2798 16.5091 97.5049 16.1189 97.8992C15.7286 98.2936 15.5089 98.8256 15.5071 99.3805C15.5158 100.558 16.5137 101.562 17.6611 101.546C17.9443 101.541 18.2239 101.481 18.4836 101.368C18.7434 101.254 18.9783 101.091 19.1749 100.887C19.3714 100.683 19.5258 100.442 19.6291 100.178C19.7324 99.9143 19.7826 99.6326 19.7769 99.3492H19.7716Z" fill="#003F4F"/>
<path d="M35.0461 14.9354H50.4265C51.5808 14.9354 51.6069 14.9615 51.6139 16.0886C51.6208 17.1322 51.6208 18.1758 51.6139 19.2193C51.6139 20.3134 51.5391 20.3829 50.4091 20.3829C43.8028 20.3829 37.1966 20.3829 30.5903 20.3829C27.1725 20.3829 23.7546 20.3829 20.3333 20.4038C18.9095 20.4125 18.7078 20.609 18.5304 22.0388C18.4822 22.5009 18.4619 22.9656 18.4696 23.4302C18.4696 31.0518 18.4696 38.6735 18.4696 46.2951C18.4696 47.5509 18.4696 47.5526 17.2249 47.5561C16.2113 47.5561 15.196 47.5196 14.1842 47.5683C13.3967 47.6066 13.1272 47.3248 13.1411 46.5247C13.1707 41.7155 13.1551 36.9046 13.1551 32.0885C13.1551 28.8418 13.1551 25.5951 13.1551 22.3484C13.141 21.8255 13.1648 21.3024 13.2263 20.783C13.8053 16.8521 15.9279 14.9702 19.9212 14.9424C24.9628 14.9041 30.0045 14.932 35.0461 14.932V14.9354Z" fill="#003F4F"/>
</g>
<defs>
<clipPath id="clip0_148_320">
<rect width="108" height="103" fill="white"/>
</clipPath>
</defs>
</svg>
