<svg width="101" height="82" viewBox="0 0 101 82" fill="none" xmlns="http://www.w3.org/2000/svg">
<path d="M21.137 16.8968C33.6682 16.7665 45.7169 16.8178 57.7663 16.8083C63.5445 16.8083 69.3236 16.7949 75.1042 16.8454C77.6194 16.8676 80.1378 16.8691 82.6506 16.8976C84.0304 16.9134 85.3199 18.1201 85.4989 19.5827C85.6899 21.0716 85.721 22.5763 85.5916 24.0717C85.4494 25.6259 84.3867 26.7797 82.8471 27.0293C82.6074 27.0672 82.5099 27.2046 82.4037 27.3768C80.6763 30.1875 78.9585 33.0054 77.2143 35.8074C73.2865 42.1165 69.3523 48.4221 65.4117 54.7243C63.6947 57.4806 62.0025 60.2526 60.2983 63.0167C60.2172 63.1677 60.1242 63.3122 60.0202 63.4487C59.2484 64.3427 58.9696 65.4231 58.7323 66.5438C57.9964 70.0234 57.5625 73.5497 57.0544 77.0649C56.9178 78.0126 56.7604 78.9603 56.599 79.908C56.5177 80.3368 56.3465 80.7441 56.0964 81.1037C55.6354 81.8002 54.9259 81.9779 54.1517 81.9795C52.0488 81.9834 49.9459 82.0419 47.8437 81.9368C47.5649 81.9124 47.2844 81.9124 47.0056 81.9368C45.6082 82.1138 44.6518 81.0823 44.4305 80.013C44.2499 79.1387 44.1509 78.2471 44.0166 77.3634C43.4552 73.6694 42.8941 69.9758 42.3332 66.2824C42.2628 65.8657 42.1117 65.4664 41.8881 65.1064C39.0059 60.2789 36.0825 55.4759 33.1177 50.6974C30.4156 46.3301 27.7028 41.9698 24.9793 37.6167C22.8514 34.1987 20.7234 30.7806 18.5954 27.3626C18.4884 27.1912 18.3845 27.0554 18.1464 27.0254C16.7027 26.8437 15.525 25.5762 15.4155 24.1033C15.299 22.6471 15.3003 21.184 15.4195 19.728C15.5649 18.0696 17.079 16.806 18.5052 16.8849C19.5398 16.9402 20.5809 16.8968 21.137 16.8968ZM23.8304 18.9501V18.973C22.1126 18.973 20.395 18.973 18.6777 18.973C17.9762 18.973 17.5544 19.3964 17.5112 20.0898C17.4329 21.2976 17.4329 22.5092 17.5112 23.7171C17.5648 24.5195 17.9906 24.9444 18.8048 24.9444C21.1346 24.9444 23.4647 24.9444 25.7951 24.9444C26.0081 24.9313 26.2219 24.9529 26.4279 25.0083C26.8801 25.1576 27.2029 25.6204 27.1637 26.0682C27.1446 26.3068 27.0426 26.5315 26.875 26.7043C26.7074 26.877 26.4845 26.9871 26.2441 27.0159C26.0848 27.0305 25.9246 27.0353 25.7647 27.0301C24.2602 27.0301 22.7557 27.0301 21.2513 27.0301C20.946 27.0301 20.9069 27.0972 21.0699 27.3586C24.5929 33.0027 28.1121 38.6492 31.6276 44.298C35.7291 50.8746 39.7743 57.4822 43.7633 64.1208C44.1075 64.7023 44.3346 65.344 44.4321 66.0107C44.8151 68.4947 45.1933 70.979 45.5666 73.4636C45.8599 75.4016 46.1411 77.3413 46.4391 79.2785C46.519 79.7974 46.5949 79.8535 47.1119 79.844C49.3738 79.8014 51.6349 79.9956 53.8976 79.8543C54.4297 79.8211 54.4737 79.8195 54.5624 79.2849C54.703 78.4414 54.8388 77.5964 54.9619 76.7505C55.4676 73.2346 55.9135 69.7115 56.6325 66.2279C56.929 64.7929 57.2933 63.4108 58.2728 62.2633C58.3372 62.1793 58.3946 62.0903 58.4446 61.9972C61.0014 57.8194 63.5802 53.6558 66.1812 49.5064C71.1516 41.5757 76.1133 33.6388 80.9847 25.6472C81.2795 25.1631 81.6742 24.9254 82.263 24.942C83.0093 24.9633 83.4232 24.5526 83.4887 23.8253C83.5941 22.5529 83.5687 21.2733 83.4128 20.006C83.3281 19.2668 82.9917 18.9794 82.2271 18.9707C78.5134 18.9494 74.7966 18.9478 71.0853 18.9122C65.5723 18.8593 60.0594 18.8743 54.5464 18.883C45.9717 18.8964 37.3979 18.838 28.824 18.9446C27.1597 18.9715 25.4946 18.9541 23.8304 18.9541V18.9501Z" fill="#D7FE34"/>
<path d="M35.666 59.3768C35.8264 59.3778 35.9843 59.4164 36.1268 59.4893C36.2692 59.5622 36.3922 59.6673 36.4857 59.7962C36.5792 59.925 36.6405 60.0739 36.6647 60.2306C36.6889 60.3874 36.6752 60.5475 36.6248 60.6981C36.463 61.1569 36.2725 61.6052 36.0543 62.0406C35.9513 62.257 35.9505 62.4158 36.1039 62.6132C36.7207 63.403 37.3135 64.2156 37.9287 65.0093C38.544 65.803 38.528 66.2279 37.8217 66.9253C36.2386 68.4879 34.6566 70.0511 33.0757 71.6148C32.4429 72.2403 32.0195 72.2687 31.2932 71.7325C30.4607 71.1188 29.6273 70.5068 28.802 69.8837C28.6126 69.7399 28.456 69.7028 28.2243 69.8047C27.6059 70.0803 26.9763 70.3322 26.3443 70.5755C26.1198 70.6616 26.0023 70.7832 25.9688 71.0249C25.8242 72.0808 25.666 73.1343 25.5086 74.1839C25.3975 74.9278 25.0044 75.2666 24.2398 75.2674C21.9494 75.2716 19.659 75.2716 17.3686 75.2674C16.5696 75.2674 16.1917 74.9515 16.0686 74.1736C15.9088 73.1469 15.749 72.1202 15.6124 71.0936C15.574 70.8124 15.4654 70.6481 15.1825 70.5573C14.5744 70.3627 13.9834 70.1194 13.4152 69.83C13.1515 69.6949 12.9566 69.7399 12.7289 69.9137C11.8963 70.5455 11.051 71.1678 10.2089 71.7893C9.59048 72.2458 9.09591 72.2111 8.54381 71.6669C6.90431 70.0495 5.26639 68.4303 3.63008 66.8092C3.09397 66.2784 3.06201 65.7999 3.51663 65.1957C4.15581 64.3522 4.78621 63.5056 5.43418 62.6732C5.60596 62.4545 5.62594 62.2712 5.50689 62.028C5.2076 61.4398 4.9549 60.8296 4.75105 60.2029C4.68394 59.9873 4.56089 59.887 4.32919 59.8578C3.26175 59.7148 2.19751 59.5419 1.12927 59.406C0.39421 59.3097 0.000310563 58.91 -0.0012874 58.1795C-0.00608128 55.8766 -0.00608128 53.5737 -0.0012874 51.2708C-0.0012874 50.5474 0.369443 50.158 1.09572 50.0577C2.16316 49.91 3.2282 49.7473 4.29643 49.606C4.54092 49.5736 4.68074 49.4701 4.75345 49.2419C4.94991 48.6264 5.19902 48.0285 5.4981 47.4547C5.64112 47.1791 5.58918 46.9808 5.40222 46.7439C4.77342 45.9447 4.167 45.1273 3.55498 44.3154C3.03804 43.6299 3.07559 43.1908 3.68681 42.5827C5.28477 41.0032 6.8854 39.4213 8.48868 37.8371C9.11988 37.2147 9.55532 37.1855 10.272 37.7154C11.103 38.3307 11.9363 38.9427 12.7608 39.5666C12.963 39.7198 13.134 39.7609 13.3745 39.6361C13.9565 39.3447 14.5605 39.0981 15.1809 38.8985C15.4406 38.8108 15.5669 38.6774 15.6036 38.4025C15.7394 37.3988 15.8976 36.3981 16.0462 35.3959C16.1853 34.4609 16.5105 34.1845 17.4772 34.1845C18.2762 34.1845 19.0752 34.1789 19.8742 34.1845C20.5573 34.1908 21.0455 34.622 21.0559 35.2111C21.0662 35.8287 20.5869 36.2584 19.8678 36.267C19.3884 36.2734 18.909 36.2789 18.4296 36.267C18.15 36.2591 18.0253 36.3602 17.9894 36.643C17.8671 37.5954 17.7137 38.5439 17.5899 39.4956C17.51 40.095 17.2239 40.4654 16.6095 40.6375C15.5713 40.9308 14.5698 41.3385 13.6237 41.853C13.11 42.1317 12.6522 42.1073 12.1856 41.744C11.4098 41.1438 10.6052 40.5799 9.82698 39.9828C9.59687 39.8067 9.44826 39.8249 9.25171 40.0247C8.14752 41.1303 7.0364 42.2281 5.91836 43.318C5.71462 43.517 5.70104 43.6631 5.87442 43.885C6.48484 44.6669 7.07768 45.4645 7.67932 46.2479C7.99891 46.6649 8.07082 47.1096 7.81035 47.5747C7.27064 48.531 6.84513 49.5461 6.54237 50.5995C6.3626 51.2313 5.95831 51.5195 5.31513 51.593C4.36355 51.7004 3.41835 51.8591 2.46917 51.9823C2.2055 52.0163 2.10163 52.1292 2.10243 52.3906C2.10882 53.9565 2.10882 55.5225 2.10243 57.0889C2.10243 57.355 2.21509 57.4585 2.47476 57.4909C3.4639 57.6172 4.45064 57.7649 5.44058 57.8944C5.98548 57.9655 6.34342 58.2364 6.50242 58.7632C6.82805 59.8632 7.27356 60.9251 7.83112 61.9301C8.07641 62.3684 7.99092 62.7925 7.6889 63.1842C7.09686 63.9629 6.516 64.7487 5.91357 65.5187C5.71303 65.7746 5.70903 65.9428 5.95671 66.1813C7.06197 67.2475 8.15391 68.3268 9.23254 69.4193C9.44586 69.6333 9.60087 69.6404 9.83896 69.458C10.5956 68.8767 11.377 68.3271 12.1328 67.7442C12.6458 67.3494 13.13 67.3043 13.71 67.6384C14.6387 68.158 15.6287 68.5625 16.6575 68.8428C17.2168 69.0007 17.5044 69.3474 17.5819 69.8995C17.7177 70.8637 17.8687 71.8257 17.991 72.7907C18.0277 73.0822 18.1316 73.2046 18.4392 73.203C20.01 73.1925 21.5813 73.1925 23.1532 73.203C23.4432 73.203 23.5391 73.0893 23.5766 72.8152C23.7125 71.8115 23.8771 70.8116 24.0241 69.8094C24.096 69.3135 24.366 68.9983 24.8526 68.8562C25.9532 68.5409 27.0153 68.1068 28.0198 67.5618C28.4992 67.2996 28.937 67.3699 29.3597 67.6858C30.1451 68.2726 30.9401 68.8483 31.7175 69.4461C31.9675 69.638 32.1297 69.6254 32.3566 69.3988C33.4379 68.3089 34.5299 67.2296 35.6325 66.1608C35.8562 65.9428 35.8809 65.7833 35.6812 65.529C35.074 64.7621 34.4995 63.9708 33.8987 63.1992C33.5671 62.7735 33.5359 62.3392 33.782 61.874C34.0904 61.2904 34.3693 60.6941 34.6249 60.0852C34.8255 59.5956 35.1794 59.3657 35.666 59.3768Z" fill="#D7FE34"/>
<path d="M100.998 54.7748C100.998 55.8939 100.998 57.013 100.998 58.1313C100.998 58.921 100.636 59.3049 99.8406 59.4138C98.786 59.5576 97.7345 59.7179 96.6799 59.8632C96.4801 59.8908 96.3323 59.9422 96.2628 60.1578C96.0395 60.8198 95.7726 61.4667 95.4638 62.0943C95.3655 62.3004 95.3919 62.4544 95.5309 62.6336C96.2029 63.5024 96.8628 64.3766 97.5284 65.2493C97.9151 65.7579 97.8959 66.291 97.4381 66.7459C95.7576 68.4165 94.0725 70.0823 92.3829 71.7434C91.9083 72.2094 91.3882 72.2323 90.8377 71.828C89.9724 71.1922 89.1087 70.5541 88.253 69.9057C88.0381 69.743 87.8535 69.7106 87.6002 69.8267C86.9954 70.1 86.3794 70.3495 85.7578 70.5841C85.5237 70.6725 85.4318 70.81 85.399 71.0437C85.256 72.0594 85.0994 73.0734 84.9484 74.089C84.8182 74.968 84.461 75.2736 83.5702 75.2784H76.8587C75.9575 75.2784 75.6187 74.9901 75.4805 74.0937C75.3207 73.0797 75.1697 72.0657 75.0331 71.0485C74.9979 70.7863 74.8733 70.6646 74.6336 70.5746C74.0128 70.3377 73.3967 70.0866 72.7903 69.8172C72.5666 69.7185 72.4068 69.7256 72.2103 69.8749C71.3761 70.5067 70.5324 71.1282 69.6879 71.749C68.9848 72.2678 68.5517 72.2378 67.9357 71.6297C66.3154 70.0307 64.6958 68.4302 63.0771 66.828C62.5178 66.2752 62.4747 65.8203 62.9445 65.1869C63.5741 64.3382 64.2133 63.4958 64.862 62.6597C65.0458 62.4228 65.045 62.2388 64.9148 61.9845C64.7197 61.5954 64.5466 61.196 64.3962 60.788C64.1885 60.2352 64.4482 59.6421 64.9611 59.4391C65.217 59.3335 65.5049 59.3324 65.7617 59.436C66.0184 59.5396 66.2233 59.7395 66.3314 59.9919C66.6198 60.6585 66.9362 61.3092 67.2606 61.9584C67.4643 62.3667 67.4204 62.7703 67.1335 63.143C66.5287 63.9281 65.9407 64.7225 65.3286 65.506C65.1401 65.7429 65.1209 65.9095 65.3558 66.1378C66.4669 67.2166 67.5682 68.3057 68.6596 69.405C68.8761 69.623 69.0327 69.6206 69.2652 69.4437C70.0354 68.8569 70.8232 68.2938 71.5918 67.7062C72.0712 67.3414 72.5402 67.3003 73.0708 67.5965C74.0351 68.1323 75.0608 68.5523 76.1261 68.8474C76.6174 68.9848 76.8939 69.2889 76.9682 69.7849C77.12 70.7997 77.2878 71.8129 77.4236 72.8286C77.4596 73.09 77.5618 73.1926 77.8287 73.1911C79.4128 73.1837 80.9972 73.1837 82.5818 73.1911C82.8767 73.1911 82.9677 73.0615 83.0029 72.7962C83.1259 71.8485 83.2793 70.896 83.4024 69.9436C83.4823 69.3394 83.7891 68.9769 84.3931 68.8064C85.4567 68.5056 86.481 68.0828 87.4452 67.5467C87.9118 67.2885 88.3361 67.3556 88.7468 67.6604C89.5458 68.2535 90.3527 68.834 91.1437 69.4413C91.3994 69.638 91.5592 69.6182 91.7829 69.3955C92.8559 68.3159 93.9354 67.2426 95.0332 66.1875C95.2968 65.934 95.28 65.7571 95.0731 65.4941C94.4938 64.7565 93.9409 63.9983 93.3649 63.2576C92.9782 62.7616 92.9494 62.2798 93.269 61.7262C93.7821 60.8168 94.1843 59.8505 94.4675 58.8476C94.6456 58.2371 95.0308 57.9425 95.6659 57.8722C96.6311 57.764 97.5899 57.6061 98.5527 57.4774C98.7964 57.4458 98.901 57.3391 98.9002 57.0943C98.8954 55.5148 98.8954 53.9353 98.9002 52.3558C98.9002 52.1102 98.7932 52.0059 98.5503 51.9736C97.6011 51.848 96.6559 51.6885 95.7043 51.5834C95.0419 51.5108 94.6369 51.2154 94.4531 50.5654C94.1572 49.5255 93.7364 48.5243 93.1995 47.5833C92.9526 47.1498 92.983 46.7241 93.2794 46.3253C93.873 45.5355 94.4627 44.7355 95.0723 43.956C95.2784 43.6914 95.3016 43.5201 95.0364 43.265C93.938 42.212 92.8549 41.1421 91.7869 40.0554C91.5472 39.8122 91.3794 39.8185 91.1173 40.0191C90.3415 40.6185 89.5402 41.1863 88.758 41.7771C88.3241 42.1048 87.8791 42.1135 87.4149 41.8703C86.4042 41.3368 85.3411 40.9065 84.2421 40.5861C83.7627 40.4503 83.5103 40.1241 83.4391 39.6534C83.2889 38.6647 83.1355 37.6791 83.0125 36.6848C82.9733 36.3689 82.8527 36.2504 82.5331 36.2622C82.0537 36.2804 81.5743 36.2725 81.0949 36.2622C80.4054 36.2496 79.9356 35.8176 79.942 35.2127C79.9476 34.6377 80.4286 34.186 81.0766 34.1812C81.9693 34.1707 82.8615 34.1707 83.7531 34.1812C84.4387 34.1883 84.8238 34.5319 84.93 35.2269C85.081 36.2156 85.2321 37.2012 85.3567 38.1955C85.4062 38.5904 85.5389 38.8274 85.9575 38.9513C86.5272 39.1251 87.0761 39.381 87.6162 39.6297C87.8383 39.7308 87.9941 39.73 88.1923 39.58C89.06 38.9261 89.9389 38.2856 90.8161 37.6443C91.4122 37.2076 91.898 37.2336 92.4141 37.7446C94.0744 39.3768 95.7317 41.0144 97.3862 42.6576C97.9047 43.1718 97.9343 43.6527 97.4932 44.2372C96.85 45.0925 96.2077 45.9486 95.5501 46.7928C95.3903 46.9989 95.3639 47.1727 95.479 47.4033C95.7855 48.0027 96.0428 48.6254 96.2484 49.2655C96.3171 49.489 96.4569 49.5664 96.6807 49.5964C97.7489 49.7394 98.8139 49.9021 99.8814 50.0489C100.621 50.1508 100.993 50.5504 100.996 51.2889C101.002 52.4593 100.998 53.6171 100.998 54.7748Z" fill="#D7FE34"/>
<path d="M45.7032 5.79521C45.7032 2.61803 48.3622 -0.000789574 51.5829 1.78576e-07C54.8851 1.78576e-07 57.5673 2.60618 57.525 5.85759C57.4818 9.13743 54.9147 11.7018 51.5414 11.671C48.1209 11.6409 45.6864 8.89261 45.7032 5.79521Z" fill="#D7FE34"/>
<path d="M73.007 54.6801C73.0293 50.706 76.2516 47.5818 80.3017 47.6078C84.3126 47.6331 87.4549 50.8458 87.427 54.8972C87.4006 58.7591 84.1056 61.8826 80.0827 61.8589C76.1701 61.836 72.9846 58.6036 73.007 54.6801ZM75.1171 54.7109C75.1137 55.3738 75.2426 56.0309 75.4964 56.6445C75.7503 57.2581 76.124 57.8163 76.5963 58.287C77.0685 58.7577 77.6301 59.1317 78.2488 59.3877C78.8674 59.6437 79.5311 59.7765 80.2018 59.7787C82.9894 59.7906 85.3233 57.4884 85.3217 54.729C85.3201 51.9696 83.027 49.6983 80.2409 49.688C79.5705 49.6842 78.906 49.8112 78.2853 50.0617C77.6647 50.3123 77.1001 50.6814 76.6241 51.1481C76.1481 51.6147 75.7699 52.1696 75.5113 52.781C75.2527 53.3924 75.1187 54.0482 75.1171 54.7109Z" fill="#D7FE34"/>
<path d="M28.0011 54.7109C28.0467 58.5396 24.8428 61.7847 21.0084 61.866C16.9121 61.9529 13.6626 58.7789 13.5835 54.9462C13.5036 50.8924 16.6572 47.6481 20.6497 47.6078C24.7405 47.5668 27.9524 50.6705 28.0011 54.7109ZM25.8846 54.7582C25.8894 54.0955 25.7617 53.4383 25.5089 52.8245C25.2561 52.2106 24.8831 51.6521 24.4115 51.1811C23.9398 50.71 23.3787 50.3356 22.7603 50.0794C22.1419 49.8232 21.4784 49.6902 20.8079 49.688C17.9947 49.6817 15.6864 51.9475 15.68 54.7211C15.6737 57.4671 17.9731 59.7605 20.752 59.7755C21.4226 59.7798 22.0876 59.6534 22.7088 59.4035C23.33 59.1536 23.8952 58.7851 24.3723 58.3192C24.8493 57.8532 25.2288 57.2989 25.489 56.6879C25.7492 56.0769 25.885 55.4212 25.8886 54.7582H25.8846Z" fill="#D7FE34"/>
<path d="M29.8755 9.93823C29.8164 7.79642 31.5597 5.50614 34.3186 5.48561C37.0351 5.46586 38.8728 7.65663 38.852 9.9327C38.832 12.3991 36.8482 14.3806 34.3618 14.3806C33.7715 14.3822 33.1867 14.2683 32.6412 14.0455C32.0957 13.8227 31.6001 13.4954 31.1831 13.0825C30.7661 12.6695 30.4359 12.1791 30.2114 11.6395C29.987 11.0999 29.8728 10.5217 29.8755 9.93823Z" fill="#D7FE34"/>
<path d="M71.1258 9.99831C71.1178 12.4039 69.0964 14.3862 66.658 14.3806C64.1364 14.3743 62.1645 12.3999 62.1485 9.90907C62.1341 7.73646 63.8951 5.49434 66.6228 5.48092C67.2214 5.47523 67.8151 5.58869 68.3684 5.81454C68.9218 6.04039 69.4235 6.374 69.8437 6.79552C70.2638 7.21703 70.5939 7.71783 70.8142 8.26806C71.0345 8.8183 71.1404 9.40673 71.1258 9.99831Z" fill="#D7FE34"/>
<path d="M65.0862 38.1498C63.5682 38.1624 62.13 37.8544 60.8061 37.086C58.9133 35.9851 57.77 34.3479 57.4024 32.2195C57.0828 30.3462 57.3321 28.5401 58.3788 26.9053C59.6012 24.9949 61.4045 23.9477 63.6369 23.6223C65.143 23.4028 66.6411 23.4762 68.0808 24.0267C70.8101 25.0691 72.3769 27.019 72.7333 29.9024C72.9482 31.647 72.6534 33.2983 71.7002 34.7854C70.4674 36.7014 68.6537 37.7462 66.3982 38.0708C66.2 38.0992 65.9987 38.1356 65.8045 38.1498C65.5656 38.16 65.3251 38.1498 65.0862 38.1498ZM65.0263 34.5082C67.2507 34.4451 68.6217 33.0077 68.6737 30.8754C68.7256 28.743 67.15 27.1825 65.0535 27.1817C62.9761 27.1817 61.4013 28.7146 61.4133 30.8264C61.4253 32.9809 62.9554 34.4593 65.0263 34.5082Z" fill="#D7FE34"/>
<path d="M44.5844 30.8556C44.5844 28.7106 44.5844 26.5654 44.5844 24.4199C44.5844 23.8915 44.6187 23.8576 45.1508 23.8576C47.0812 23.8576 49.0123 23.841 50.9427 23.8576C53.8885 23.8884 56.0721 26.0563 56.001 28.8923C55.9635 30.362 55.4082 31.6098 54.1634 32.4872C53.8861 32.6823 53.8533 32.841 54.0187 33.134C54.8177 34.5461 55.5927 35.9716 56.3773 37.3916C56.5739 37.747 56.5371 37.8291 56.1241 37.8307C54.9392 37.837 53.7543 37.822 52.5694 37.8402C52.2058 37.8457 52.0492 37.6475 51.907 37.3774C51.315 36.2575 50.7173 35.1408 50.1237 34.0225C49.9168 33.6332 49.085 33.3907 48.7119 33.6142C48.5409 33.7185 48.5873 33.893 48.5865 34.0438C48.5825 35.11 48.5865 36.1762 48.5865 37.2415C48.5865 37.8007 48.5561 37.8315 48.008 37.8331C47.0356 37.8331 46.0641 37.822 45.0917 37.8386C44.709 37.8449 44.546 37.7004 44.586 37.3276C44.586 37.315 44.586 37.3016 44.586 37.2881L44.5844 30.8556ZM48.5881 28.8078V29.9134C48.5881 30.0872 48.6288 30.2427 48.8429 30.2404C49.5061 30.2325 50.1756 30.3273 50.8316 30.1693C51.1541 30.1003 51.4411 29.9199 51.6412 29.6605C51.8412 29.4011 51.9411 29.0797 51.923 28.7541C51.8998 28.0946 51.4436 27.5758 50.7677 27.4249C50.1485 27.2875 49.5213 27.3609 48.8973 27.3459C48.6775 27.3404 48.5865 27.4541 48.5881 27.6618C48.5929 28.0441 48.5913 28.4255 48.5905 28.807L48.5881 28.8078Z" fill="#D7FE34"/>
<path d="M40.7823 29.5407C40.2902 29.5407 39.7972 29.5249 39.305 29.5462C38.9774 29.5604 38.7945 29.4372 38.6658 29.1411C38.3303 28.3766 37.787 27.7985 37.0032 27.4613C35.6321 26.8713 34.1125 27.2457 33.1521 28.4042C31.9632 29.8368 32.0838 32.2353 33.4102 33.5431C35.0449 35.155 37.8213 34.5943 38.6443 32.4651C38.7969 32.0703 38.999 31.9542 39.4033 31.9644C40.4012 31.9889 41.4008 31.9692 42.3979 31.9739C42.815 31.9739 42.8861 32.071 42.8038 32.4762C42.1174 35.8563 39.2787 38.1577 35.7727 38.1577C33.0162 38.1577 30.8071 37.0812 29.301 34.7752C28.3742 33.3583 28.0889 31.7654 28.2423 30.088C28.3798 28.5874 28.9119 27.2599 29.885 26.0974C31.0036 24.7627 32.4458 23.9587 34.1444 23.6491C35.7871 23.3522 37.413 23.4793 38.9383 24.213C41.0484 25.2247 42.2812 26.9155 42.7886 29.1545C42.8549 29.4459 42.7263 29.5391 42.457 29.5375C41.8977 29.5375 41.3384 29.5375 40.7792 29.5375L40.7823 29.5407Z" fill="#D7FE34"/>
</svg>
