<svg width="85" height="82" viewBox="0 0 85 82" fill="none" xmlns="http://www.w3.org/2000/svg">
<path d="M54.7656 65.2748C54.7585 65.2175 54.7585 65.1596 54.7656 65.1023C55.8263 61.7552 53.9205 59.7349 51.6753 57.6442C47.8036 54.0401 44.1052 50.2531 40.4174 46.4554C39.3779 45.3995 38.8192 45.6635 37.8822 46.5434C36.7968 47.5676 37.2069 48.1413 38.1015 48.9121C39.6183 50.2249 41.068 51.6327 41.7044 53.6072C42.6485 56.5461 42.058 59.2386 39.8941 61.4067C33.8055 67.5379 27.6768 73.6386 21.5081 79.7087C18.3047 82.8447 13.7824 82.7426 10.5967 79.6031C7.91303 76.9634 5.25413 74.2991 2.59169 71.6417C-0.86276 68.189 -0.891046 63.7825 2.59169 60.2664C7.43924 55.3882 12.3398 50.5593 17.2157 45.7128C18.2163 44.7202 19.2028 43.7066 20.2317 42.7422C23.9796 39.2226 27.8006 39.1639 31.6946 42.5662C32.1826 42.9921 32.6634 43.425 33.1089 43.8861C34.3854 45.1813 35.3895 45.0229 36.2911 43.4215C36.6094 42.8654 36.376 42.5451 36.026 42.1967C32.0305 38.2078 28.0375 34.2189 24.0468 30.23C23.1982 29.3747 22.2789 29.8217 21.3879 29.9625C15.08 30.9691 8.49643 27.5867 5.73146 21.8287C4.08464 18.5373 3.69391 14.7629 4.63184 11.2064C5.33899 8.53505 6.60479 8.17606 8.56008 10.0767C9.91074 11.3895 11.2225 12.7374 12.5767 14.0432C14.0511 15.4511 17.007 15.0639 18.1137 13.3112C19.7119 10.777 19.6447 10.1646 17.5409 8.06693C16.2928 6.82098 15.027 5.6032 13.7966 4.3291C12.156 2.64672 12.4424 1.51343 14.6558 0.746151C22.9471 -2.06954 32.3841 3.40699 34.0459 11.9737C34.4278 13.9518 34.5869 15.9263 34.0884 17.9043C33.9634 18.2918 33.9557 18.7073 34.0664 19.0991C34.177 19.491 34.4011 19.8417 34.7107 20.1076C38.5293 23.8618 42.3161 27.6407 46.0711 31.4442C46.9197 32.3065 47.4854 32.3382 48.3658 31.4442C52.8751 26.8898 57.415 22.3683 61.9856 17.8796C62.7175 17.1546 62.8908 16.5809 62.2968 15.6095C61.1618 13.7476 61.4199 12.1673 63.0569 10.7243C65.0393 8.97618 67.0807 7.29264 69.1809 5.67361C70.8604 4.37487 72.5611 4.50158 74.1664 5.89183C74.6967 6.3529 75.1811 6.87026 75.6832 7.36653C78.1052 9.77746 78.2042 11.4458 76.0368 14.089C74.6578 15.7678 73.2753 17.4467 71.8292 19.0692C70.1745 20.9276 68.6081 21.181 66.5255 19.8788C65.6168 19.3016 65.1112 19.4564 64.4041 20.1463C59.8005 24.7687 55.1733 29.37 50.5226 33.9502C49.8155 34.6541 49.7943 35.1117 50.5226 35.8156C55.2936 40.5249 60.0433 45.2528 64.7718 49.9996C65.0322 50.2758 65.3595 50.4807 65.7223 50.5947C66.0851 50.7087 66.4713 50.728 66.8438 50.6508C76.3302 49.3027 83.4265 54.5505 84.8515 63.9408C85.1243 66.0457 84.8629 68.1851 84.0913 70.1635C83.4902 71.8389 82.2951 72.0887 80.9621 70.8463C79.417 69.4033 77.9426 67.8793 76.4292 66.4046C74.9159 64.9298 71.9883 65.3487 70.8781 67.2598C69.2976 69.9911 69.3259 70.2234 71.564 72.4618C72.7697 73.6656 73.9896 74.8587 75.1811 76.0765C76.9313 77.8609 76.5707 79.1104 74.1204 79.8073C64.2591 82.6476 54.7585 75.5274 54.7656 65.2748ZM80.9621 66.6052L81.5243 66.0984C82.2314 58.3869 74.5517 51.9706 66.9958 54.0648C65.2527 54.547 64.1672 54.181 62.9473 52.9596C52.4862 42.4759 41.9873 32.0261 31.4507 21.6104C30.5066 20.6707 30.1813 19.7415 30.5738 18.4427C31.5249 15.3138 31.0971 12.3257 29.5944 9.42549C27.4729 5.30754 22.2789 2.66433 17.9087 3.76949C19.3972 5.20901 20.7797 6.55349 22.1693 7.89094C22.9471 8.6371 23.3361 9.44313 22.9648 10.5659C21.7697 14.1805 20.267 17.4925 15.964 18.309C15.7344 18.362 15.5148 18.4511 15.3134 18.573C13.8319 19.3966 12.6687 19.0164 11.5726 17.7881C10.4765 16.5598 9.15409 15.3772 7.77161 14.0116C7.68954 14.3222 7.62461 14.6371 7.57713 14.9548C7.29073 22.2756 14.4648 28.171 21.6884 26.5203C23.2017 26.1683 24.517 25.8164 25.8854 27.189C36.33 37.715 46.8277 48.1812 57.3785 58.5875C58.5418 59.7384 58.9661 60.8013 58.5135 62.4591C57.4952 66.1899 58.273 69.6461 60.6349 72.7434C63.0888 75.9462 68.5091 77.9137 71.4014 76.6713C69.8173 75.2142 68.35 73.8556 66.8897 72.5181C66.0942 71.786 65.7229 70.973 66.1225 69.8503C67.3918 66.2849 68.8768 62.9518 73.1551 62.1071C73.3282 62.0654 73.4931 61.9952 73.6431 61.8995C75.0786 61.0548 76.3126 61.2518 77.398 62.54C78.5648 63.9162 79.7741 65.2748 80.9621 66.6122V66.6052ZM16.0913 78.5719C17.5798 78.6423 18.6476 77.8679 19.6271 76.8754C23.573 72.9299 27.48 68.9422 31.5214 65.0917C32.7978 63.874 32.6811 63.1665 31.486 62.0332C28.0422 58.76 24.6938 55.3811 21.3172 52.0375C20.4756 51.2034 19.7508 50.2284 20.8221 49.1584C21.8935 48.0885 22.834 48.8276 23.679 49.6759C27.0828 53.0805 30.5007 56.4828 33.9328 59.8827C34.3995 60.3403 34.7283 61.1322 35.6441 60.8049C38.5434 59.7736 39.7562 55.5254 37.6595 53.3151C34.8309 50.3375 31.8856 47.455 28.9226 44.6076C28.5488 44.2271 28.1025 43.9248 27.6098 43.7185C27.1171 43.5121 26.5879 43.4058 26.0533 43.4058C25.5187 43.4058 24.9896 43.5121 24.4968 43.7185C24.0041 43.9248 23.5578 44.2271 23.184 44.6076C16.9469 50.7482 10.7452 56.9251 4.5788 63.1384C3.3236 64.4019 2.97356 65.9752 3.79032 67.6751C4.60709 69.3751 5.05966 69.4561 6.40679 68.1151C10.1524 64.389 13.8967 60.6582 17.6399 56.9227C18.4567 56.1097 19.4326 55.5149 20.4155 56.43C21.5258 57.4859 20.7868 58.4256 19.9276 59.2773C16.5521 62.628 13.1813 65.9845 9.81528 69.347C7.20942 71.9585 6.98666 71.1772 9.77638 74.0879C10.678 75.0241 11.2897 75.0382 12.2161 74.0879C15.7518 70.4768 19.3619 66.9395 22.9471 63.3812C23.3085 63.0015 23.6973 62.6486 24.1104 62.3253C24.9095 61.727 25.7652 61.6214 26.4864 62.4133C27.1335 63.1172 27.0345 63.9232 26.4263 64.6412C26.0728 65.0425 25.7192 65.4155 25.3338 65.7886C21.7556 69.3575 18.1774 72.9252 14.5992 76.4918C14.2456 76.8437 13.6056 77.1323 13.892 77.7588C14.1183 78.2586 14.6805 78.4381 15.2179 78.5261C15.5008 78.5754 15.7978 78.5719 16.0913 78.593V78.5719ZM74.177 10.9495C73.7703 9.85491 72.9076 9.22138 72.0979 8.57377C71.4509 8.05639 70.9028 8.52096 70.3937 8.95035C69.5875 9.62612 68.7602 10.2808 67.9575 10.9671C64.5278 13.8919 64.3157 13.0507 67.802 16.521C68.6293 17.3446 69.1385 17.1616 69.7785 16.3838C71.0372 14.8422 72.3348 13.3358 73.6042 11.8083C73.8098 11.5393 74.001 11.2597 74.177 10.9706V10.9495Z" fill="#D7FE34"/>
<path d="M56.728 50.8232C56.728 52.0726 55.4976 52.7836 54.3414 52.1501C53.8478 51.8352 53.4014 51.4525 53.0155 51.0132C46.3564 44.3964 39.7033 37.776 33.056 31.1521C32.6706 30.7927 32.3299 30.3885 32.0413 29.9483C31.8583 29.647 31.7822 29.2932 31.8252 28.9436C31.8681 28.5941 32.0277 28.269 32.2782 28.0204C32.5288 27.7718 32.8559 27.6141 33.2071 27.5724C33.5584 27.5308 33.9136 27.6077 34.2158 27.7908C34.6566 28.0814 35.0623 28.4215 35.425 28.8045C42.1642 35.5035 48.8998 42.206 55.6319 48.912C56.1694 49.4365 56.7775 49.9503 56.728 50.8232Z" fill="#D7FE34"/>
</svg>
