<svg width="84" height="84" viewBox="0 0 84 84" fill="none" xmlns="http://www.w3.org/2000/svg">
<path d="M0 14.5611C1.62784 11.3651 3.57528 10.1496 6.54943 10.3301C7.57614 10.393 7.98186 10.7838 7.98683 11.8006C7.98984 12.6075 8.08485 13.4114 8.27001 14.1968C8.88438 16.7686 10.9411 18.3268 13.4036 18.1579C15.9223 17.9923 17.8648 16.0681 18.1563 13.4616C18.5057 10.34 18.5057 10.3383 21.7382 10.3383C30.3824 10.3383 39.0283 10.3897 47.6726 10.3003C49.567 10.2804 50.1566 10.8782 50.135 12.7445C50.1036 15.9223 52.2183 18.1099 55.0699 18.1695C57.9215 18.2291 59.96 16.1045 60.1041 12.8704C60.22 10.292 60.3922 10.1413 62.9623 10.3632C65.9199 10.6182 68.341 13.0128 68.3824 16.0366C68.4702 22.442 68.3923 28.849 68.4337 35.2461C68.442 36.5709 67.8392 36.9402 66.6287 36.9915C62.7702 37.1571 62.7404 37.1571 62.7388 33.3616C62.7388 31.8066 62.651 30.2467 62.7603 28.7C62.8828 26.9446 62.1161 26.4495 60.4585 26.471C55.0484 26.5422 49.6366 26.4958 44.2298 26.4958C32.1013 26.4958 19.9734 26.4958 7.84607 26.4958C5.36209 26.4958 5.36209 26.5074 5.36209 28.9798C5.36209 39.4274 5.40515 49.8767 5.32235 60.326C5.30745 62.2238 5.89532 62.7802 7.76659 62.7636C16.6609 62.6825 25.5552 62.7173 34.4479 62.7438C35.3156 62.7438 36.5675 62.3828 36.8275 63.6066C37.1306 65.039 37.2846 66.5757 36.6619 67.9949C36.4334 68.5132 35.7925 68.399 35.309 68.399C25.4194 68.399 15.5299 68.4288 5.64195 68.3824C2.82677 68.3675 1.08467 66.6784 0.0115931 64.201L0 14.5611Z" fill="#D7FE34"/>
<path d="M59.7329 84C53.0212 82.6553 47.8429 79.1463 44.4349 73.1483C37.2761 60.5462 45.4517 44.0393 59.8157 42.0869C71.1725 40.5435 81.1515 47.4639 83.715 58.6568C83.7977 59.0178 83.9037 59.3755 83.9998 59.7331V66.4532C83.3473 68.7715 82.7479 71.1098 81.539 73.2427C78.1724 79.1745 73.0073 82.5543 66.4529 84.0066L59.7329 84ZM62.924 47.4855C58.8338 47.4859 54.9109 49.1092 52.0164 51.9991C49.1219 54.8889 47.4923 58.8092 47.4852 62.8994C47.4604 71.6033 54.4536 78.6445 63.0863 78.6081C71.459 78.5717 78.5383 71.5023 78.6062 63.1081C78.6774 54.4953 71.6262 47.4706 62.924 47.4855Z" fill="#D7FE34"/>
<path d="M56.3731 0C57.582 0.973721 58.0142 2.22235 57.9695 3.77732C57.8884 6.69848 57.9695 9.62461 57.9331 12.5541C57.9049 14.6588 56.8931 15.7998 55.1626 15.8197C53.4321 15.8395 52.3309 14.6836 52.2862 12.6203C52.2183 9.44906 52.2862 6.27454 52.2597 3.10166C52.2597 1.80502 52.9221 0.874366 53.76 0.00497282L56.3731 0Z" fill="#D7FE34"/>
<path d="M14.1865 0C15.3871 0.675643 15.8723 1.69078 15.8425 3.07518C15.7912 6.29442 15.8425 9.51529 15.8177 12.7362C15.7978 14.7499 14.8472 15.7998 13.1432 15.818C11.4392 15.8362 10.3844 14.7499 10.3529 12.8091C10.3016 9.52857 10.3529 6.24475 10.3297 2.96259C10.3198 1.65435 10.9209 0.725323 11.9393 0H14.1865Z" fill="#D7FE34"/>
<path d="M36.9777 36.849C36.9877 42.2359 36.9877 42.2376 31.5709 42.2359C30.2677 42.2359 28.9644 42.2161 27.6611 42.2359C26.6046 42.2459 26.0449 41.8137 26.0548 40.6892C26.0791 38.0827 26.0791 35.4762 26.0548 32.8697C26.0449 31.7635 26.5616 31.3031 27.6413 31.3097C30.1849 31.328 32.7301 31.3379 35.2754 31.3097C36.4429 31.2932 37.0042 31.7668 36.9811 32.9541C36.9579 34.2359 36.9777 35.5391 36.9777 36.849Z" fill="#D7FE34"/>
<path d="M47.0518 42.2227C45.8728 42.2227 44.6921 42.1863 43.513 42.2326C42.223 42.284 41.7444 41.6779 41.7643 40.4342C41.8057 37.9502 41.7974 35.4663 41.7725 32.9823C41.761 31.8231 42.2246 31.2716 43.4285 31.2882C45.9743 31.3235 48.5202 31.3235 51.066 31.2882C52.2649 31.2733 52.7219 31.8247 52.712 32.9872C52.6806 35.5325 52.6855 38.0778 52.712 40.623C52.712 41.7077 52.2517 42.2326 51.1554 42.2177C49.7892 42.2012 48.423 42.2177 47.0568 42.2177L47.0518 42.2227Z" fill="#D7FE34"/>
<path d="M36.9748 52.6389C36.9748 53.8793 36.9748 55.1229 36.9748 56.3616C36.9864 57.4314 36.5161 57.9563 35.4066 57.9463C32.8 57.9198 30.1935 57.9298 27.587 57.9463C26.6149 57.9463 26.0618 57.5638 26.0635 56.5272C26.0635 53.8594 26.0734 51.1899 26.0635 48.5221C26.0635 47.507 26.5454 47.0317 27.5307 47.0317C30.2001 47.0317 32.869 47.0317 35.5374 47.0317C36.5525 47.0317 36.988 47.5666 36.9814 48.547C36.9682 49.9082 36.9748 51.2727 36.9748 52.6389Z" fill="#D7FE34"/>
<path d="M15.8068 31.2933C16.3036 31.2933 16.8004 31.2933 17.2972 31.2933C21.361 31.3463 21.2716 30.7021 21.2716 35.3604C21.2716 37.0942 21.2517 38.8297 21.2567 40.5651C21.2567 41.7243 20.7135 42.2427 19.5444 42.2211C17.0671 42.1913 14.5891 42.1913 12.1107 42.2211C10.872 42.2377 10.3073 41.7658 10.3371 40.4658C10.3967 37.9907 10.3967 35.5127 10.3371 33.0321C10.3073 31.7437 10.8455 31.232 12.0991 31.2784C13.3527 31.3248 14.5831 31.2883 15.8168 31.2883L15.8068 31.2933Z" fill="#D7FE34"/>
<path d="M10.3452 52.4154C10.3452 47.0169 10.3452 47.0169 15.699 47.0185C17.0006 47.0185 18.3022 47.0434 19.6038 47.0185C20.6686 47.0036 21.2349 47.4739 21.2366 48.5603C21.2366 51.1635 21.2366 53.7651 21.2366 56.3683C21.2366 57.4132 20.7564 57.9547 19.6452 57.9415C17.0436 57.9117 14.4404 57.9199 11.8372 57.9415C10.7078 57.9415 10.312 57.3768 10.3468 56.3169C10.3717 55.0153 10.3452 53.7121 10.3452 52.4154Z" fill="#D7FE34"/>
<path d="M65.7111 68.4204C64.0949 68.4204 62.4786 68.4519 60.8624 68.4105C58.7477 68.3542 57.6481 67.46 57.5752 65.4082C57.4577 62.0565 57.4659 58.6948 57.5603 55.3431C57.61 53.5215 58.9563 52.2928 60.4964 52.3375C62.0365 52.3822 63.1162 53.6457 63.1692 55.5633C63.2172 57.3651 63.2321 59.1701 63.1692 60.9701C63.1261 62.2469 63.6345 62.7801 64.9146 62.7487C66.7163 62.7056 68.5213 62.6974 70.3214 62.7802C72.4626 62.8812 73.7195 64.0817 73.6234 65.7808C73.534 67.3871 72.2506 68.3856 70.1839 68.4171C68.6952 68.4403 67.2032 68.4221 65.7111 68.4204Z" fill="#D7FE34"/>
</svg>
