<svg width="106" height="84" viewBox="0 0 106 84" fill="none" xmlns="http://www.w3.org/2000/svg">
<path d="M87.1551 6.96818e-05C88.2681 1.79794 89.8545 2.34319 91.9667 2.22821C95.1587 2.054 98.37 2.12893 101.576 2.21081C104.721 2.29269 105.984 3.51042 105.987 6.58701C106.014 30.8978 106.014 55.2091 105.987 79.5211C105.987 82.5419 104.635 83.953 101.59 83.9617C83.9777 84.0117 66.3661 84.0117 48.755 83.9617C45.5753 83.953 44.2946 82.5454 44.2911 79.2824C44.2701 55.0703 44.2701 30.8589 44.2911 6.648C44.2911 3.49475 45.4547 2.2927 48.61 2.2143C52.8031 2.12197 57.0172 2.10803 61.2173 2.2143C63.043 2.2596 64.3446 1.82755 64.9247 -0.00341797L87.1551 6.96818e-05ZM100.767 43.0793C100.767 32.8147 100.767 22.549 100.767 12.282C100.767 7.39364 100.767 7.33438 95.8751 7.41626C93.5007 7.45633 90.5882 6.41802 88.8726 7.9389C86.7411 9.82388 84.6113 9.78034 82.2475 9.78557C77.543 9.79602 72.838 9.79602 68.1324 9.78557C67.0422 9.78557 65.7144 10.0434 65.033 9.06779C63.7 7.15145 61.8323 7.37621 59.9419 7.39363C57.5396 7.41454 55.1285 7.52605 52.7367 7.36577C50.2278 7.19156 49.4486 8.17931 49.4574 10.6427C49.5284 32.1718 49.5255 53.7004 49.4486 75.2284C49.4381 78.0158 50.4305 78.8538 53.1316 78.8364C67.7469 78.7481 82.3645 78.7481 96.9845 78.8364C99.8166 78.8556 100.868 78.0106 100.828 75.0751C100.68 64.4116 100.765 53.7446 100.767 43.0793V43.0793Z" fill="#D7FE34"/>
<path d="M-0.00215742 8.37794C1.04612 7.31873 2.32851 6.95988 3.81182 6.96336C14.8292 6.98775 25.8466 7.03131 36.8622 6.93027C39.296 6.90937 39.9057 7.85185 39.9372 10.1009C39.9721 12.5103 39.2523 13.4528 36.7067 13.411C27.6933 13.2942 18.6781 13.4423 9.66645 13.3221C7.08943 13.2873 6.14424 14.0433 6.17219 16.7123C6.28867 28.6749 6.28867 40.6415 6.17219 52.6122C6.15123 55.208 6.99858 56.1174 9.63325 56.0825C18.6449 55.9641 27.6619 56.1087 36.6736 55.9954C39.1842 55.9641 39.9285 56.8473 39.9442 59.2828C39.9616 61.8228 38.999 62.504 36.5879 62.4831C25.8728 62.3873 15.1559 62.4221 4.44079 62.4622C2.7618 62.4622 1.268 62.1625 -0.00390625 61.0371L-0.00215742 8.37794Z" fill="#D7FE34"/>
<path d="M8.20903 37.6769C8.20903 33.0882 8.25096 28.5012 8.19331 23.9141C8.1671 21.855 8.97078 21.5239 10.7651 22.2539C16.3209 24.5187 20.3743 28.1318 21.2478 34.292C22.5233 43.2621 30.1844 45.6733 37.0908 43.6751C39.2537 43.0479 39.8705 43.5113 39.9194 45.7534C40.1046 54.0755 40.171 54.0738 31.8529 54.0738C25.0391 54.0738 18.2253 53.9867 11.4203 54.1156C8.92361 54.1626 8.078 53.2968 8.16186 50.8386C8.31386 46.4555 8.20903 42.0636 8.20903 37.6769Z" fill="#D7FE34"/>
<path d="M39.8792 69.7878C39.6119 71.0822 40.6742 73.2807 39.1192 74.0055C36.9825 75.0002 34.4212 74.5281 32.0486 74.2076C31.175 74.0874 31.1278 73.2546 31.0911 72.5595C31.0422 71.6676 31.037 70.7721 31.0475 69.8784C31.1191 63.9552 30.3364 64.5719 36.502 64.3785C39.1227 64.2983 40.2426 65.1572 39.8914 67.7791C39.8128 68.3645 39.8792 68.969 39.8792 69.7878Z" fill="#D7FE34"/>
<path d="M27.9515 79.1831C24.8574 79.1831 21.7615 79.2005 18.669 79.1726C17.757 79.1639 16.7926 79.0838 16.7979 77.7963C16.8031 76.5089 17.7728 76.434 18.6795 76.4323C25.0694 76.4125 31.458 76.4125 37.8455 76.4323C38.7558 76.4323 39.7219 76.5211 39.7149 77.8085C39.708 79.096 38.7418 79.1657 37.8333 79.1726C34.533 79.2075 31.2379 79.1831 27.9515 79.1831Z" fill="#D7FE34"/>
<path d="M60.7282 16.5468C67.5315 16.5468 67.5315 16.5467 67.5315 23.3602C67.5315 30.1336 67.5315 30.1336 60.6898 30.1336C53.876 30.1336 53.876 30.1336 53.876 23.3219C53.8865 16.5467 53.8865 16.5468 60.7282 16.5468ZM60.716 19.362C56.7168 19.362 56.7168 19.362 56.7133 23.1842C56.7133 27.3183 56.7133 27.3183 60.7003 27.3183C64.6872 27.3183 64.6977 27.3183 64.7047 23.4961C64.7117 19.362 64.7117 19.362 60.716 19.362Z" fill="#D7FE34"/>
<path d="M67.5315 43.7081C67.5315 50.4833 67.5315 50.4833 60.6898 50.4833C53.876 50.4833 53.876 50.4833 53.876 43.6698C53.876 36.8929 53.876 36.893 60.7195 36.8947C67.5315 36.8965 67.5315 36.8964 67.5315 43.7081ZM64.7047 43.5496C64.7047 39.7169 64.7047 39.7169 60.716 39.7169C56.7063 39.7169 56.7063 39.7169 56.7133 43.8353C56.7133 47.668 56.7133 47.668 60.7003 47.668C64.7117 47.6749 64.7117 47.675 64.7047 43.5496Z" fill="#D7FE34"/>
<path d="M60.5511 70.8313C52.8446 70.7041 53.968 71.8766 53.8981 64.1782C53.8352 57.2445 53.8858 57.194 60.8656 57.2567C68.5722 57.3264 67.4488 56.2027 67.5187 63.8977C67.5798 70.8313 67.5309 70.8313 60.5511 70.8313ZM60.7154 60.058C56.7162 60.058 56.7162 60.058 56.7127 63.8803C56.7127 68.0161 56.7127 68.0161 60.6996 68.0161C64.6866 68.0161 64.6971 68.0161 64.7041 64.1938C64.711 60.0598 64.7111 60.0598 60.7154 60.058V60.058Z" fill="#D7FE34"/>
<path d="M83.6088 21.7452C80.1145 21.7452 76.6203 21.7661 73.126 21.7278C72.1791 21.7173 70.9648 21.8863 70.9019 20.4072C70.8373 18.9003 72.0306 18.9735 72.9985 18.97C79.987 18.9444 86.9755 18.9444 93.964 18.97C94.9109 18.97 96.1566 18.8132 96.1846 20.2888C96.216 22.003 94.8044 21.7138 93.7858 21.7295C90.3999 21.7783 87.0052 21.7469 83.6088 21.7452Z" fill="#D7FE34"/>
<path d="M82.9127 39.6961C79.6176 39.6961 76.3225 39.717 73.0274 39.6804C72.0613 39.6682 70.8592 39.771 70.8994 38.2675C70.9396 36.7641 72.1486 36.9261 73.099 36.9226C79.6892 36.8971 86.2788 36.8971 92.8678 36.9226C93.8322 36.9226 95.036 36.8337 94.9976 38.3354C94.9591 39.8372 93.7484 39.6682 92.7962 39.6804C89.5011 39.7205 86.206 39.6961 82.9127 39.6961Z" fill="#D7FE34"/>
<path d="M82.5423 49.2708C79.3486 49.2708 76.1548 49.2848 72.9593 49.2569C71.9617 49.2569 70.8226 49.2569 70.8959 47.7761C70.9571 46.5026 71.9792 46.5061 72.8685 46.5043C79.1581 46.4834 85.4478 46.4834 91.7374 46.5043C92.735 46.5043 93.8969 46.5043 93.7955 47.9834C93.6942 49.4624 92.4712 49.2499 91.5243 49.2639C88.5332 49.3039 85.5369 49.276 82.5423 49.2708Z" fill="#D7FE34"/>
<path d="M81.7443 26.5169C78.7498 26.5169 75.7552 26.5343 72.7624 26.5064C71.8504 26.5064 70.886 26.4211 70.8877 25.1336C70.8894 23.8462 71.8574 23.7678 72.7659 23.766C78.755 23.7451 84.743 23.7451 90.7298 23.766C91.6401 23.766 92.6062 23.8514 92.6045 25.1388C92.6027 26.4262 91.6348 26.4977 90.7263 26.5064C87.7317 26.5343 84.7337 26.5169 81.7443 26.5169Z" fill="#D7FE34"/>
<path d="M80.9775 62.4203C78.1821 62.4203 75.3867 62.436 72.5913 62.4099C71.7719 62.4099 70.9543 62.2513 70.8861 61.1747C70.8058 59.9274 71.6583 59.6782 72.6332 59.6765C78.3196 59.6625 84.007 59.6625 89.6957 59.6765C90.5168 59.6765 91.3327 59.835 91.4026 60.9116C91.483 62.1608 90.6286 62.4029 89.6555 62.4099C86.764 62.436 83.8708 62.4221 80.9775 62.4203Z" fill="#D7FE34"/>
<path d="M80.5406 44.4712C77.9461 44.4712 75.3534 44.4904 72.7589 44.4608C71.8486 44.4503 70.8842 44.3736 70.8877 43.0862C70.8912 41.7988 71.8574 41.7239 72.7659 41.7204C77.9537 41.6972 83.1415 41.6972 88.3293 41.7204C89.2395 41.7204 90.2039 41.8075 90.2004 43.0932C90.197 44.3789 89.2308 44.4503 88.3205 44.4608C85.7278 44.4921 83.1333 44.4712 80.5406 44.4712Z" fill="#D7FE34"/>
</svg>
